<?xml version="1.0" encoding="UTF-8" standalone="no"?>
<!-- Created with Inkscape (http://www.inkscape.org/) -->
<svg
   xmlns:dc="http://purl.org/dc/elements/1.1/"
   xmlns:cc="http://creativecommons.org/ns#"
   xmlns:rdf="http://www.w3.org/1999/02/22-rdf-syntax-ns#"
   xmlns:svg="http://www.w3.org/2000/svg"
   xmlns="http://www.w3.org/2000/svg"
   xmlns:sodipodi="http://sodipodi.sourceforge.net/DTD/sodipodi-0.dtd"
   xmlns:inkscape="http://www.inkscape.org/namespaces/inkscape"
   width="210mm"
   height="297mm"
   id="svg2"
   sodipodi:version="0.32"
   inkscape:version="0.46"
   sodipodi:docname="interfaz.svg"
   inkscape:output_extension="org.inkscape.output.svg.inkscape">
  <defs
     id="defs4">
    <inkscape:perspective
       sodipodi:type="inkscape:persp3d"
       inkscape:vp_x="0 : 526.18109 : 1"
       inkscape:vp_y="0 : 1000 : 0"
       inkscape:vp_z="744.09448 : 526.18109 : 1"
       inkscape:persp3d-origin="372.04724 : 350.78739 : 1"
       id="perspective10" />
    <filter
       inkscape:collect="always"
       id="filter3231">
      <feGaussianBlur
         inkscape:collect="always"
         stdDeviation="1.9705286"
         id="feGaussianBlur3233" />
    </filter>
  </defs>
  <sodipodi:namedview
     id="base"
     pagecolor="#ffffff"
     bordercolor="#666666"
     borderopacity="1.0"
     inkscape:pageopacity="0.0"
     inkscape:pageshadow="2"
     inkscape:zoom="0.7"
     inkscape:cx="411.52136"
     inkscape:cy="679.66531"
     inkscape:document-units="px"
     inkscape:current-layer="layer1"
     showgrid="false"
     inkscape:window-width="1024"
     inkscape:window-height="721"
     inkscape:window-x="0"
     inkscape:window-y="24" />
  <metadata
     id="metadata7">
    <rdf:RDF>
      <cc:Work
         rdf:about="">
        <dc:format>image/svg+xml</dc:format>
        <dc:type
           rdf:resource="http://purl.org/dc/dcmitype/StillImage" />
      </cc:Work>
    </rdf:RDF>
  </metadata>
  <g
     inkscape:label="Capa 1"
     inkscape:groupmode="layer"
     id="layer1">
    <rect
       style="opacity:0.8;fill:none;fill-opacity:1;stroke:#000000;stroke-width:4;stroke-linecap:butt;stroke-linejoin:round;stroke-miterlimit:4;stroke-dasharray:none;stroke-dashoffset:0;stroke-opacity:1;filter:url(#filter3231)"
       id="rect3153"
       width="639.00818"
       height="479.00818"
       x="30.001404"
       y="174.78116"
       transform="matrix(0.9953266,0,0,0.9937655,0.129301,4.0869144)"
       inkscape:export-filename="/home/matt/Proyectos/CarmenSD/ingame.png"
       inkscape:export-xdpi="90"
       inkscape:export-ydpi="90" />
    <rect
       style="opacity:0.8;fill:none;fill-opacity:1;stroke:#000000;stroke-width:3.47678995;stroke-linecap:butt;stroke-linejoin:round;stroke-miterlimit:4;stroke-dasharray:none;stroke-dashoffset:0;stroke-opacity:1"
       id="rect3235"
       width="636.52319"
       height="36.237495"
       x="29.739813"
       y="177.52771"
       inkscape:export-filename="/home/matt/Proyectos/CarmenSD/ingame.png"
       inkscape:export-xdpi="90"
       inkscape:export-ydpi="90" />
    <rect
       style="opacity:0.8;fill:none;fill-opacity:1;stroke:#000000;stroke-width:1.39690328;stroke-linecap:butt;stroke-linejoin:round;stroke-miterlimit:4;stroke-dasharray:none;stroke-dashoffset:0;stroke-opacity:1"
       id="rect3237"
       width="97.174507"
       height="38.317383"
       x="28.699856"
       y="176.48776"
       inkscape:export-filename="/home/matt/Proyectos/CarmenSD/ingame.png"
       inkscape:export-xdpi="90"
       inkscape:export-ydpi="90" />
    <rect
       style="opacity:0.8;fill:none;fill-opacity:1;stroke:#000000;stroke-width:1.39690328;stroke-linecap:butt;stroke-linejoin:round;stroke-miterlimit:4;stroke-dasharray:none;stroke-dashoffset:0;stroke-opacity:1"
       id="rect3241"
       width="97.174507"
       height="38.317383"
       x="127.27126"
       y="176.48776"
       inkscape:export-filename="/home/matt/Proyectos/CarmenSD/ingame.png"
       inkscape:export-xdpi="90"
       inkscape:export-ydpi="90" />
    <rect
       style="opacity:0.8;fill:none;fill-opacity:1;stroke:#000000;stroke-width:1.39690328;stroke-linecap:butt;stroke-linejoin:round;stroke-miterlimit:4;stroke-dasharray:none;stroke-dashoffset:0;stroke-opacity:1"
       id="rect3243"
       width="97.174507"
       height="38.317383"
       x="225.84267"
       y="176.48776"
       inkscape:export-filename="/home/matt/Proyectos/CarmenSD/ingame.png"
       inkscape:export-xdpi="90"
       inkscape:export-ydpi="90" />
    <flowRoot
       xml:space="preserve"
       id="flowRoot3245"
       style="font-size:40px;font-style:normal;font-weight:normal;fill:#000000;fill-opacity:1;stroke:none;stroke-width:1px;stroke-linecap:butt;stroke-linejoin:miter;stroke-opacity:1;font-family:Bitstream Vera Sans"
       transform="matrix(0.6471087,0,0,0.542619,-48.975946,-42.860792)"
       inkscape:export-filename="/home/matt/Proyectos/CarmenSD/ingame.png"
       inkscape:export-xdpi="90"
       inkscape:export-ydpi="90"><flowRegion
         id="flowRegion3247"><rect
           id="rect3249"
           width="117.14286"
           height="51.428566"
           x="138.57143"
           y="410.93362" /></flowRegion><flowPara
         id="flowPara3251">Juego</flowPara></flowRoot>    <flowRoot
       xml:space="preserve"
       id="flowRoot3253"
       style="font-size:40px;font-style:normal;font-variant:normal;font-weight:normal;font-stretch:normal;text-align:start;line-height:125%;writing-mode:lr-tb;text-anchor:start;fill:#000000;fill-opacity:1;stroke:none;stroke-width:1px;stroke-linecap:butt;stroke-linejoin:miter;stroke-opacity:1;font-family:Bitstream Vera Sans;-inkscape-font-specification:Bitstream Vera Sans"
       transform="matrix(0.4656715,0,0,0.4688119,68.275278,-9.8564205)"
       inkscape:export-filename="/home/matt/Proyectos/CarmenSD/ingame.png"
       inkscape:export-xdpi="90"
       inkscape:export-ydpi="90"><flowRegion
         id="flowRegion3255"><rect
           id="rect3257"
           width="187.78676"
           height="54.061298"
           x="138.57143"
           y="410.93362"
           style="font-size:40px;font-style:normal;font-variant:normal;font-weight:normal;font-stretch:normal;text-align:start;line-height:125%;writing-mode:lr-tb;text-anchor:start;font-family:Bitstream Vera Sans;-inkscape-font-specification:Bitstream Vera Sans" /></flowRegion><flowPara
         id="flowPara3261">Opciones</flowPara></flowRoot>    <flowRoot
       xml:space="preserve"
       id="flowRoot3263"
       style="font-size:40px;font-style:normal;font-variant:normal;font-weight:normal;font-stretch:normal;text-align:start;line-height:125%;writing-mode:lr-tb;text-anchor:start;fill:#000000;fill-opacity:1;stroke:none;stroke-width:1px;stroke-linecap:butt;stroke-linejoin:miter;stroke-opacity:1;font-family:Bitstream Vera Sans;-inkscape-font-specification:Bitstream Vera Sans"
       transform="matrix(0.6471087,0,0,0.542619,145.5845,-42.314757)"
       inkscape:export-filename="/home/matt/Proyectos/CarmenSD/ingame.png"
       inkscape:export-xdpi="90"
       inkscape:export-ydpi="90"><flowRegion
         id="flowRegion3265"><rect
           id="rect3267"
           width="125.97335"
           height="61.959503"
           x="138.57143"
           y="410.93362"
           style="font-size:40px;font-style:normal;font-variant:normal;font-weight:normal;font-stretch:normal;text-align:start;line-height:125%;writing-mode:lr-tb;text-anchor:start;font-family:Bitstream Vera Sans;-inkscape-font-specification:Bitstream Vera Sans" /></flowRegion><flowPara
         id="flowPara3271">Ayuda</flowPara></flowRoot>    <g
       id="g3337"
       transform="translate(-8.5714276,562.85715)">
      <path
         inkscape:export-ydpi="90"
         inkscape:export-xdpi="90"
         inkscape:export-filename="/home/matt/Proyectos/CarmenSD/main.png"
         d="M 87.7472,276.77201 C 84.60456,276.05662 81.37357,275.87428 78.16359,275.72944 C 74.41055,275.26703 71.11601,276.31032 67.812536,277.9967 C 98.24927,260.472 83.53102,268.46971 77.27018,273.57193 C 75.15067,275.73335 73.37703,278.23064 71.8982,280.8681 C 69.923291,284.0802 67.773175,287.14463 66.071288,290.51937 C 64.424642,293.87351 63.928954,297.54782 63.662751,301.22702 C 63.199716,304.52712 64.450244,307.08978 66.313637,309.6945 C 68.414499,312.49752 70.99103,314.84319 74.11831,316.42547 C 76.84436,317.61972 79.61783,318.44864 82.56671,318.83781 C 85.35828,319.00425 88.22182,319.38758 90.98218,318.8364 C 91.96393,318.3481 93.10299,318.29078 94.09821,317.84668 C 94.64583,317.60231 95.11286,317.20503 95.64279,316.92436 C 102.08345,313.51307 111.53777,308.04 83.353,324.2024 C 86.139,322.3063 88.82744,320.25511 91.48192,318.17736 C 97.30908,313.52956 102.86659,308.54554 108.47423,303.63525 C 111.69994,300.92302 114.67635,297.95847 118.00905,295.37705 C 119.12861,294.40691 120.37435,293.6116 121.62743,292.83076 L 141.10879,285.19627 C 139.86997,286.09473 138.52216,286.71227 137.29425,287.63015 C 134.04923,290.34436 137.88668,287.21043 134.42594,289.79484 C 131.84993,291.71855 129.81799,294.2948 127.11253,296.06951 C 122.9151,299.67704 118.56974,303.11381 114.55689,306.93415 C 113.72988,307.72148 112.99041,308.59775 112.1597,309.38118 C 111.74432,309.77292 111.26956,310.09649 110.82449,310.45414 C 108.07596,312.54479 105.32037,314.61415 102.62345,316.77891 C 96.27688,320.44162 83.78831,329.49284 74.21833,331.30946 C 71.29635,331.41931 68.358319,331.29365 65.467126,330.83612 C 62.401632,330.22635 59.450377,329.22405 56.668628,327.78321 C 53.466549,325.80555 50.714477,323.2627 48.434106,320.26017 C 46.312269,317.34033 44.609988,314.28609 45.068094,310.53906 C 45.329446,306.64783 45.745754,302.69914 47.264949,299.06861 C 48.812864,295.64975 50.666614,292.43796 52.854573,289.38863 C 54.378766,286.59591 56.065082,284.00701 57.939161,281.43759 C 65.337189,274.39803 76.01598,270.88928 83.99369,265.16458 C 87.58936,263.75864 91.19401,263.09225 95.05998,263.60208 C 98.44512,263.84089 101.8251,264.17726 105.17146,264.75344 L 87.7472,276.77201 z"
         id="path3273"
         style="opacity:0.8;fill:none;fill-opacity:1;stroke:#000000;stroke-width:4;stroke-linecap:butt;stroke-linejoin:round;stroke-miterlimit:4;stroke-dasharray:none;stroke-dashoffset:0;stroke-opacity:1" />
      <path
         inkscape:export-ydpi="90"
         inkscape:export-xdpi="90"
         inkscape:export-filename="/home/matt/Proyectos/CarmenSD/main.png"
         d="M 190.751,280.01394 C 187.90466,279.88835 185.0535,279.91604 182.20499,279.91813 C 178.9453,279.84909 175.79488,279.77526 172.63509,280.63764 C 172.03375,280.88105 171.40253,281.06078 170.83108,281.36786 C 170.22209,281.69512 168.50881,282.86565 169.11331,282.53017 C 174.42288,279.58346 179.63072,276.45525 184.95254,273.53072 C 185.56268,273.19543 183.82158,274.343 183.26082,274.75561 C 181.604,275.97473 181.66133,275.95083 180.05374,277.21716 C 176.59168,280.00845 175.09377,283.84494 174.18527,288.06019 C 173.52199,291.99417 173.23188,296.12131 174.85979,299.84372 C 176.49446,302.84214 179.22282,304.05007 182.4274,304.62145 C 185.89166,305.24969 187.65019,304.72961 190.82011,303.54876 C 197.44016,300.43209 206.19498,295.0723 176.96477,311.69017 C 176.56885,311.91526 177.75427,311.23581 178.14536,311.00241 C 179.37384,310.26928 179.09073,310.43236 180.31708,309.56417 C 187.14835,304.98372 194.18338,301.438 201.54191,297.18596 C 207.17894,293.92867 179.06767,310.33643 184.60027,306.90476 C 200.77687,296.87101 196.86281,298.36491 204.67189,295.53185 C 210.92898,291.98019 219.61155,287.4529 190.1395,303.86881 C 189.7703,304.07445 190.80523,303.34498 191.10483,303.04692 C 191.8589,302.29671 192.20887,301.73634 192.82511,300.87943 C 194.33668,298.3661 195.30662,295.62877 195.91844,292.77544 C 196.41512,289.61968 196.42458,286.41612 196.44161,283.22966 C 196.40596,272.97886 198.69488,274.44609 216.58759,271.44132 C 217.80187,271.2374 217.39916,273.76632 217.80494,274.92882 C 220.17668,281.82418 223.19709,288.48813 225.04739,295.55281 C 225.67229,299.30298 226.60664,302.85577 228.35786,306.22301 C 229.55103,308.77754 231.58278,309.78836 234.21911,310.28578 L 216.97467,322.15354 C 213.96127,321.17269 211.64758,319.47744 210.22369,316.56158 C 208.4504,312.97466 207.52306,309.22707 207.09541,305.23387 C 205.59032,298.16507 203.16229,291.36416 200.25895,284.74938 C 199.76144,283.71584 197.9106,282.41253 198.76641,281.64878 C 203.96162,277.01238 210.58204,274.27219 216.35752,270.38243 C 216.55335,270.25054 215.85631,270.14474 215.65777,270.27253 C 214.80474,270.8216 215.11571,273.04742 215.03524,273.77148 C 215.00865,277.05912 214.96588,280.35228 214.62753,283.62568 C 214.2534,286.73865 213.28565,289.60986 211.94126,292.43865 C 207.25638,301.20193 196.94006,304.35191 188.22552,308.58771 C 187.89387,308.77255 186.90225,309.33298 187.23055,309.14224 C 192.87323,305.86378 209.84054,296.0965 204.16883,299.3245 C 202.39816,300.33226 158.64728,325.69297 202.00047,300.52616 C 202.75765,300.08661 198.88889,302.3097 199.83653,302.01482 C 197.13861,303.41404 200.13262,301.73996 197.67145,303.50352 C 190.49439,308.64626 182.62995,313.1821 174.34459,316.35109 C 171.33021,317.24991 168.32376,317.25071 165.26005,316.48582 C 161.60596,315.39871 158.66283,313.43438 156.81716,309.98625 C 155.05327,305.88372 154.90995,301.43153 155.65712,297.05013 C 156.46766,292.56262 157.5834,288.29205 160.86655,284.92904 C 169.29089,277.9367 178.68093,271.41985 189.13372,268.09916 C 192.4265,267.53902 195.74006,267.63422 199.0722,267.66338 C 202.00871,267.66555 204.94737,267.68896 207.88195,267.56757 L 190.751,280.01394 z"
         id="path3275"
         style="opacity:0.8;fill:none;fill-opacity:1;stroke:#000000;stroke-width:4;stroke-linecap:butt;stroke-linejoin:round;stroke-miterlimit:4;stroke-dasharray:none;stroke-dashoffset:0;stroke-opacity:1" />
      <path
         inkscape:export-ydpi="90"
         inkscape:export-xdpi="90"
         inkscape:export-filename="/home/matt/Proyectos/CarmenSD/main.png"
         d="M 332.29671,261.27385 C 334.49958,264.80023 335.21876,269.02151 335.77812,273.07972 C 336.23829,276.86627 336.42138,280.68007 336.4221,284.49248 C 336.54922,287.68325 336.22027,290.90745 336.58506,294.08381 C 337.12506,296.61575 337.49852,299.16621 337.70169,301.74608 C 338.22363,311.25062 340.81966,304.64255 319.13535,313.58297 C 318.77694,313.73074 319.19928,312.81012 319.21876,312.42293 C 319.24206,311.95975 319.2487,311.49588 319.26367,311.03236 C 319.21155,306.79564 319.83953,302.60655 320.22763,298.3993 C 320.79826,294.43882 321.50416,290.51072 321.85836,286.52199 C 321.98796,283.3969 323.28548,280.6973 324.75922,278.01558 C 326.54784,274.90878 328.91428,272.26783 331.72356,270.06603 C 340.44542,264.42276 348.92178,257.73684 359.32172,256.41393 C 363.39545,255.7438 366.03279,258.58548 368.56859,261.32561 C 371.59688,264.9007 373.55657,269.14309 374.95849,273.5732 C 375.96299,277.49515 376.27813,281.53513 376.43364,285.56586 C 376.54012,288.6996 376.4683,291.83421 376.43683,294.96819 C 376.2575,297.88897 376.48218,300.72403 377.03497,303.58445 C 377.30698,304.97792 377.29955,306.41528 377.60462,307.80319 C 377.63949,307.96179 377.92336,308.18646 377.77784,308.25851 C 358.54811,317.77948 358.29417,323.7777 359.23402,315.4992 C 359.38042,310.8717 359.71674,306.25716 360.39744,301.67644 C 360.97826,297.4676 361.99677,293.34218 362.77775,289.17082 C 363.1367,285.92806 364.10029,282.83067 365.75593,280.02378 C 367.26262,277.66028 368.98444,275.44401 371.03594,273.53152 C 378.19436,269.26282 387.16663,260.54774 396.84296,262.16609 C 399.78699,262.50612 402.02022,264.07074 404.08101,266.07327 C 406.13393,268.92904 407.78539,272.06514 409.1277,275.31073 C 410.28885,278.69171 411.65434,281.99849 412.6036,285.448 C 413.34108,288.37105 413.38572,291.38935 413.91697,294.34653 C 414.42191,297.42916 414.89264,300.51093 415.46219,303.58315 C 415.97051,306.71678 416.86188,309.76124 417.37087,312.89634 C 417.59398,314.36202 417.68452,315.84138 417.77466,317.31942 L 399.20698,326.90238 C 399.14578,325.48209 399.08642,324.06052 398.91267,322.64821 C 398.48761,319.50882 397.61935,316.47732 397.10262,313.35902 C 396.55244,310.29255 395.87169,307.26286 395.48405,304.16899 C 394.92367,301.24364 394.80142,298.30008 394.29318,295.36657 C 393.48135,291.96708 392.18742,288.72045 390.95363,285.45735 C 389.81037,282.47297 388.32593,279.5682 386.29624,277.0852 C 384.40256,275.47816 382.38145,274.38848 379.82729,274.3272 C 371.36985,274.53052 359.83162,283.62064 390.52756,265.8046 C 388.1284,267.14563 386.40479,269.41509 384.90127,271.6749 C 382.9559,274.11166 381.77756,276.97916 381.44387,280.09706 C 380.63588,284.29542 379.43836,288.40479 378.84201,292.64468 C 378.07755,297.07745 377.60336,301.58748 377.86709,306.08776 C 378.23226,314.75677 378.3955,308.034 359.04287,318.21238 C 359.00871,318.23035 359.06789,317.68865 358.93848,316.3025 C 358.81884,315.02108 358.74659,314.69778 358.54626,313.44829 C 357.98001,310.44236 357.66795,307.47655 357.89118,304.40695 C 357.88839,301.28897 357.88489,298.17148 357.91816,295.05348 C 357.89062,291.1682 357.79888,287.25296 356.88827,283.45475 C 355.70172,279.26597 353.82245,275.3925 350.9317,272.0913 C 348.4718,269.65851 346.24491,268.0496 342.65267,268.94304 C 341.09577,269.25877 339.60033,269.61826 338.12772,270.23284 C 337.59538,270.455 336.06248,271.25671 336.55833,270.96198 C 344.58474,266.19109 358.94056,258.01453 351.05251,262.51076 C 348.02824,264.16447 345.71549,266.6691 343.82106,269.53529 C 342.3257,271.96439 340.91039,274.40484 340.44317,277.26393 C 340.06896,281.28571 339.4797,285.27547 338.64368,289.2284 C 338.2653,293.32415 337.63347,297.42237 337.90434,301.54066 C 337.91689,301.99456 337.92333,302.44868 337.94198,302.90237 C 337.95742,303.27764 338.32701,303.83132 338.00659,304.02726 C 314.8244,318.20401 319.61692,320.85333 319.12002,311.38615 C 318.94683,308.83518 318.61414,306.30909 318.0611,303.81014 C 317.63568,300.54017 318.03993,297.22369 317.92054,293.93346 C 317.87588,290.18049 317.94225,286.41796 317.54327,282.67946 C 317.10745,279.33883 316.80657,275.29919 314.44288,272.70547 L 332.29671,261.27385 z"
         id="path3279"
         style="opacity:0.8;fill:none;fill-opacity:1;stroke:#000000;stroke-width:4;stroke-linecap:butt;stroke-linejoin:round;stroke-miterlimit:4;stroke-dasharray:none;stroke-dashoffset:0;stroke-opacity:1" />
      <path
         inkscape:export-ydpi="90"
         inkscape:export-xdpi="90"
         inkscape:export-filename="/home/matt/Proyectos/CarmenSD/main.png"
         d="M 152.03291,373.91487 C 148.89028,373.19949 145.65928,373.01715 142.4493,372.8723 C 140.87132,372.92753 139.26184,372.65151 137.68509,372.78118 C 132.7173,373.18973 113.54606,385.22243 150.12071,365.4795 C 144.59338,370.02872 139.51695,375.21571 135.28783,381.00082 C 133.4892,383.7051 132.21788,386.75478 132.27441,390.03785 C 132.44529,392.41528 134.05481,393.99568 136.10705,394.98259 C 139.14036,396.67283 141.67796,397.23799 145.09802,396.96315 C 151.27766,393.35789 160.39327,388.69351 131.46244,404.67883 C 130.91763,404.97985 132.46834,403.94515 132.96114,403.56492 C 133.92678,402.81987 134.8685,402.0443 135.82779,401.29109 C 138.57348,399.22122 141.41003,397.27197 144.31726,395.43619 C 154.56699,388.55729 160.39804,383.88653 171.00652,383.37015 C 174.35159,383.63813 176.51665,385.73502 178.00242,388.57352 C 179.20515,391.96361 179.19479,395.5865 179.28056,399.13683 C 179.3736,402.34726 178.48978,405.08336 176.4405,407.52548 C 174.42902,409.53596 172.11614,411.21084 169.75956,412.79018 C 161.0129,418.61905 152.18341,424.84213 142.14566,428.10516 C 138.0226,429.63154 133.99712,431.30422 129.68094,432.21584 C 125.74497,432.90286 122.64457,432.92886 118.98619,431.24356 C 115.79065,429.60159 113.11338,427.59827 110.91133,424.76503 C 109.18098,422.27974 108.00997,419.49245 106.70451,416.77788 L 124.93171,406.46399 C 126.10991,409.06543 127.15649,411.73115 128.82037,414.07698 C 130.83371,416.58456 133.29391,418.38078 136.26511,419.66443 C 139.5408,420.74162 142.85963,420.41057 146.1899,419.6319 C 150.36996,418.55299 154.33731,416.87733 158.38784,415.40289 C 165.36851,412.50713 174.41285,406.52005 146.10097,423.06031 C 142.91016,424.92442 153.83729,419.06044 150.34189,420.39657 C 152.64853,418.84056 155.03929,417.35802 157.08924,415.46977 C 159.51211,413.7247 160.56895,411.57956 160.80232,408.59158 C 160.7709,405.36933 160.79616,402.05985 159.82069,398.95684 C 158.6568,396.65869 156.83094,395.52536 154.19387,395.78095 C 145.69606,396.66713 133.75571,404.61911 163.74674,387.96759 C 160.70646,389.60211 157.97452,391.69126 155.08911,393.57498 C 147.0199,399.98967 138.53257,407.4751 128.24552,409.25801 C 124.80876,409.13213 121.6302,408.02798 118.62225,406.37099 C 116.11652,404.81136 114.00296,402.71989 113.6601,399.64521 C 113.36501,395.88754 114.53443,392.29691 116.53462,389.12511 C 120.77422,383.15912 126.08115,378.02787 131.35125,372.98058 C 148.48916,362.69157 146.3112,359.85366 159.34569,360.74494 C 162.73083,360.98375 166.11081,361.32012 169.45718,361.8963 L 152.03291,373.91487 z"
         id="path3287"
         style="opacity:0.8;fill:none;fill-opacity:1;stroke:#000000;stroke-width:4;stroke-linecap:butt;stroke-linejoin:round;stroke-miterlimit:4;stroke-dasharray:none;stroke-dashoffset:0;stroke-opacity:1" />
      <path
         inkscape:export-ydpi="90"
         inkscape:export-xdpi="90"
         inkscape:export-filename="/home/matt/Proyectos/CarmenSD/main.png"
         d="M 213.60814,370.01394 C 210.28537,369.57203 207.39327,370.74974 204.54618,372.32982 C 235.82734,355.36424 221.21178,361.07286 216.51523,366.63002 C 215.66482,367.63627 215.38522,368.23103 214.7067,369.38354 C 212.81493,372.57456 211.60082,375.97504 211.47187,379.68359 C 211.6154,382.76434 213.1603,385.24254 215.08857,387.52358 C 217.87609,389.73441 220.77905,391.86012 223.75874,393.81345 C 226.68423,395.70721 229.767,396.78973 233.1849,397.334 C 235.42017,397.58729 237.80479,397.91656 239.93947,396.9485 C 240.49514,396.6965 242.02148,395.67646 241.48779,395.97219 C 236.11737,398.94803 230.78057,401.98415 225.42697,404.99012 C 229.04204,402.278 231.2302,398.45528 232.99115,394.39074 C 234.46295,390.66172 234.8304,386.66862 235.00534,382.70176 C 234.9443,380.08336 234.37163,377.60331 232.37002,375.8126 C 230.6759,374.01007 228.29804,373.28339 226.07443,372.35631 C 224.07975,371.48105 222.12772,370.71084 219.99747,370.19771 C 219.81088,370.12425 219.5714,369.82789 219.43772,369.97735 C 219.2889,370.14373 219.4242,370.73387 219.6176,370.62241 C 225.7057,367.11366 231.40163,362.94236 237.54932,359.5391 C 237.86047,359.36685 237.65632,360.24342 237.74344,360.58823 C 237.99726,361.59273 238.38688,362.52119 238.75314,363.49 C 240.41802,367.35146 241.8961,371.28443 243.41922,375.20304 C 244.65823,378.79379 245.79581,382.47553 247.85313,385.69731 C 249.41523,387.97702 251.85087,389.24596 254.08927,390.74597 C 256.79301,392.87441 259.944,394.27563 263.2157,395.26981 C 266.47542,395.91098 269.38757,397.51936 272.59109,398.36892 C 275.70656,399.0465 278.9136,399.07482 282.08769,399.11476 C 284.92878,399.16597 287.77051,399.13574 290.61176,399.11661 L 273.76812,411.36083 C 270.91297,411.35612 268.05776,411.35135 265.20276,411.31955 C 261.90377,411.20027 258.55608,411.07275 255.36903,410.1341 C 252.24071,409.10054 249.24958,407.68448 246.02887,406.9275 C 242.6589,405.69862 239.44135,404.17257 236.56224,402.00266 C 233.98912,400.39747 231.43237,398.80388 229.77923,396.16497 C 227.85379,392.72735 226.72449,388.9368 225.41393,385.23695 C 223.89347,381.34829 222.40754,377.44987 220.65011,373.65938 C 220.51216,373.37244 218.81076,369.74954 218.89422,369.68656 C 224.5867,365.39097 230.66478,361.63179 236.55006,357.6044 C 237.17572,358.22848 236.85772,358.05039 237.41133,358.27804 C 239.50639,358.99224 241.51271,359.87188 243.55187,360.72978 C 245.95924,361.83537 248.42808,362.81547 250.22045,364.86964 C 252.44823,367.25781 253.50031,370.091 253.51146,373.37614 C 253.32287,377.55446 253.0427,381.74372 251.7239,385.7492 C 250.05387,390.02251 248.01731,394.15111 244.61764,397.33901 C 232.77123,404.39825 228.06199,411.37398 216.13487,409.23006 C 212.57858,408.42412 209.30551,407.07654 206.30212,404.9715 C 203.22624,402.81778 199.98517,400.80907 197.22708,398.26318 C 194.98559,395.6051 193.33675,392.61195 192.92997,389.09682 C 192.91746,385.14843 193.79629,381.37148 195.77067,377.90977 C 200.55365,367.56813 210.42107,365.42215 220.72428,359.42186 C 223.9553,358.06512 227.22365,357.43607 230.73909,357.56757 L 213.60814,370.01394 z"
         id="path3289"
         style="opacity:0.8;fill:none;fill-opacity:1;stroke:#000000;stroke-width:4;stroke-linecap:butt;stroke-linejoin:round;stroke-miterlimit:4;stroke-dasharray:none;stroke-dashoffset:0;stroke-opacity:1" />
      <path
         inkscape:export-ydpi="90"
         inkscape:export-xdpi="90"
         inkscape:export-filename="/home/matt/Proyectos/CarmenSD/main.png"
         d="M 328.11872,356.64741 C 330.06006,366.02006 332.83041,375.19975 335.15017,384.48298 C 336.70111,390.67269 337.34305,397.00411 337.67515,403.35714 C 338.18188,406.53809 337.35844,409.9395 338.06697,413.08609 C 318.76092,422.61022 319.10467,427.76298 318.17061,414.70399 C 317.96401,411.25514 317.80391,407.80073 317.98148,404.34821 C 318.37242,401.49637 318.82654,398.66017 319.05862,395.78926 C 319.30248,392.71189 320.5686,389.97372 322.26531,387.45103 C 323.63975,385.48346 325.19075,383.62976 326.89631,381.9411 C 333.21415,375.136 341.90543,369.75033 351.18649,369.12434 C 354.32469,369.02718 357.46696,369.06336 360.60675,369.06704 C 364.79733,369.52625 368.71901,371.15007 372.47187,373.00777 C 376.45686,375.64161 378.99369,379.6061 381.31975,383.66302 C 383.42251,387.55664 384.26488,391.81099 384.74604,396.15664 C 385.04901,399.40241 385.05823,402.66464 385.06019,405.92143 C 384.89545,408.44294 384.32926,410.92961 383.85828,413.41113 C 383.39712,414.89717 382.99398,416.39089 382.68816,417.91621 L 363.8507,427.12648 C 364.06511,425.53511 364.31105,423.94273 364.89929,422.43736 C 365.75095,420.19942 365.65028,417.6713 366.45238,415.39228 C 366.48264,412.17227 366.54179,408.94908 366.37597,405.73158 C 366.0737,401.65172 365.43601,397.60943 363.49217,393.94549 C 361.37991,390.2384 359.03961,386.61235 355.29136,384.35848 C 351.63354,382.68541 347.82679,381.31162 343.75009,381.30978 C 340.62724,381.30291 337.48983,381.25383 334.38519,381.64509 C 333.43739,381.815 332.91221,381.86643 332.00891,382.19218 C 331.65855,382.31853 330.66739,382.83571 330.98797,382.64613 C 361.02344,364.88348 352.15755,369.8525 346.28292,373.79331 C 344.77827,375.65153 342.88345,377.16698 341.41339,379.07274 C 339.87494,381.4024 338.10515,383.53295 337.7539,386.4302 C 337.57429,389.33749 337.2397,392.22719 336.63295,395.07972 C 336.11718,398.38417 336.5585,401.77957 336.631,405.1097 C 337.81438,418.16442 341.75634,410.06997 319.14216,422.6872 C 319.85256,419.45092 319.17295,415.99227 319.45882,412.7164 C 319.36234,406.39756 318.94475,400.07476 317.7153,393.863 C 315.84126,384.71554 313.88498,375.33009 309.70766,366.92863 L 328.11872,356.64741 z"
         id="path3293"
         style="opacity:0.8;fill:none;fill-opacity:1;stroke:#000000;stroke-width:4;stroke-linecap:butt;stroke-linejoin:round;stroke-miterlimit:4;stroke-dasharray:none;stroke-dashoffset:0;stroke-opacity:1" />
      <path
         inkscape:export-ydpi="90"
         inkscape:export-xdpi="90"
         inkscape:export-filename="/home/matt/Proyectos/CarmenSD/main.png"
         d="M 166.27473,539.1648 C 161.41763,533.25541 155.57808,528.21001 149.69712,523.34703 C 146.36622,520.70298 142.95296,518.33458 138.77487,517.36523 C 135.0731,516.45158 131.77598,517.89868 128.34632,519.1038 C 122.03839,522.35728 116.38912,525.30054 142.91598,510.75077 C 143.42147,510.47351 141.96096,511.40627 141.54583,511.80634 C 140.13641,513.1646 139.51214,514.80184 138.857,516.59297 C 137.73637,520.81124 139.78057,524.31617 141.58998,527.95467 C 143.27775,531.39357 145.99677,534.23347 148.87253,536.72098 C 151.08452,539.08228 154.04515,539.64522 156.95551,540.6092 C 159.74755,541.51172 162.02069,541.85726 164.89068,541.29279 C 171.85934,537.0955 157.55299,545.72409 148.6731,550.4019 C 147.6338,550.94939 150.60164,549.0529 151.48985,548.28417 C 154.9053,545.32816 157.80423,541.79325 160.73822,538.38034 C 164.23101,533.99773 168.01901,529.85136 169.85311,524.48212 C 170.70246,520.37583 171.4438,515.81221 170.65596,511.62502 C 170.20555,509.23115 169.39517,506.91923 168.76477,504.56634 C 164.37761,492.80608 157.8348,482.10185 151.56298,471.30059 C 149.18298,467.20317 148.18115,462.77856 147.82918,458.11731 C 147.70869,456.49817 147.72596,454.88531 147.81806,453.26705 L 166.57316,444.02215 C 166.23394,445.54472 166.20016,447.03042 166.27457,448.5933 C 166.41411,453.00698 167.09734,457.30443 168.99312,461.34787 C 174.19019,472.81724 179.80077,484.10042 185.11888,495.51409 C 187.08932,499.90058 188.56415,502.13303 189.26655,506.58658 C 189.69283,509.28936 188.76235,512.96851 188.50215,515.68214 C 188.01217,517.38526 187.75337,518.55883 186.95457,520.17229 C 184.98035,524.15993 181.42534,527.05307 178.93174,530.68028 C 170.58856,540.44045 162.19166,551.86824 148.05919,553.82204 C 145.19579,553.94386 142.40795,553.22435 139.69505,552.35605 C 136.51197,551.3889 133.59304,550.07479 131.21604,547.65397 C 128.28287,544.85025 125.41644,541.87265 123.67348,538.15977 C 121.63157,534.13016 119.42012,530.14092 120.16865,525.43846 C 122.95304,513.95765 132.81418,510.91128 144.63142,506.44016 C 148.37527,505.2212 152.10579,504.31199 155.98196,505.60249 C 160.14269,507.07824 163.57425,509.73711 166.82962,512.68187 C 172.46842,517.82493 177.71797,523.54439 184.12856,527.73318 L 166.27473,539.1648 z"
         id="path3295"
         style="opacity:0.8;fill:none;fill-opacity:1;stroke:#000000;stroke-width:4;stroke-linecap:butt;stroke-linejoin:round;stroke-miterlimit:4;stroke-dasharray:none;stroke-dashoffset:0;stroke-opacity:1" />
      <path
         inkscape:export-ydpi="90"
         inkscape:export-xdpi="90"
         inkscape:export-filename="/home/matt/Proyectos/CarmenSD/main.png"
         d="M 216.54816,461.28149 C 216.27573,465.48357 216.3006,469.69657 216.28284,473.9051 C 216.2799,478.19174 216.33311,482.47772 216.38942,486.76392 C 216.56785,489.81076 217.20113,492.78541 218.2448,495.64717 C 219.2552,498.52686 220.39397,501.35121 221.58841,504.15854 C 222.91162,507.34029 223.96797,510.61271 225.09555,513.86475 C 226.65345,517.2038 227.99275,520.59366 228.75033,524.2037 C 229.21652,527.06232 229.48665,529.97212 229.06089,532.84746 C 228.77859,534.81531 228.24237,536.69958 227.59772,538.57272 L 208.59904,547.53249 C 209.13543,545.67441 210.01947,543.97102 210.19246,542.01633 C 210.82925,539.35621 210.77454,536.72633 210.35575,534.01252 C 209.76661,530.46517 208.58546,527.11437 207.00557,523.88166 C 205.8248,520.69827 204.61949,517.52936 203.39934,514.36172 C 202.20914,511.52403 200.99191,508.70303 200.01588,505.78147 C 198.81246,502.69842 198.14321,499.49012 197.8963,496.18664 C 197.95233,491.86423 198.0056,487.54204 198.00288,483.21921 C 197.98542,479.10089 198.01584,474.9774 197.73756,470.86597 L 216.54816,461.28149 z"
         id="path3297"
         style="opacity:0.8;fill:none;fill-opacity:1;stroke:#000000;stroke-width:4;stroke-linecap:butt;stroke-linejoin:round;stroke-miterlimit:4;stroke-dasharray:none;stroke-dashoffset:0;stroke-opacity:1" />
      <path
         inkscape:export-ydpi="90"
         inkscape:export-xdpi="90"
         inkscape:export-filename="/home/matt/Proyectos/CarmenSD/main.png"
         d="M 203.77303,428.94438 C 204.75309,431.33754 205.74363,433.73411 206.63176,436.1658 C 207.47399,438.67263 207.55176,441.3192 208.17996,443.87369 C 208.33375,444.96136 208.79541,445.94577 209.20728,446.95026 L 190.86221,457.21588 C 190.41189,456.11887 189.88553,455.03896 189.71998,453.85099 C 189.09706,451.35038 188.98188,448.7966 188.30493,446.30896 C 187.51871,444.04514 186.65126,441.74562 185.48192,439.66242 L 203.77303,428.94438 z"
         id="path3299"
         style="opacity:0.8;fill:none;fill-opacity:1;stroke:#000000;stroke-width:4;stroke-linecap:butt;stroke-linejoin:round;stroke-miterlimit:4;stroke-dasharray:none;stroke-dashoffset:0;stroke-opacity:1" />
      <path
         inkscape:export-ydpi="90"
         inkscape:export-xdpi="90"
         inkscape:export-filename="/home/matt/Proyectos/CarmenSD/main.png"
         d="M 275.03671,531.44251 C 274.03716,530.70212 273.09252,529.88121 272.03807,529.22136 C 270.25445,528.1052 264.90445,525.459 263.15877,524.58065 C 259.01491,522.49565 254.82612,520.51667 250.6565,518.48477 C 246.13617,516.25623 241.66445,514.03743 238.10135,510.41345 C 236.12779,508.09805 234.25298,505.68398 233.11078,502.84703 C 232.12541,499.88367 232.16206,496.74141 232.15983,493.6562 C 231.97274,489.65111 232.99046,485.74622 234.09494,481.93305 C 234.92723,478.65555 236.40916,475.83939 238.93224,473.58654 C 248.39173,466.41134 255.2731,461.5972 265.84016,460.67334 C 268.98099,460.45841 272.13115,460.47336 275.27749,460.47809 C 278.08683,460.1852 280.48899,460.89873 282.96513,462.10334 C 284.70874,463.39408 286.45587,464.69713 287.64982,466.53452 C 288.78111,469.16959 287.14977,471.59911 285.79963,473.8053 C 283.76713,476.71265 281.69672,479.58533 279.43194,482.31674 C 276.7554,485.49655 273.57016,488.20691 270.28001,490.72809 C 267.93341,492.5814 265.59287,494.45434 263.8605,496.91313 C 262.96793,498.29947 262.19508,499.7366 261.50219,501.23073 L 242.43306,509.91255 C 243.16297,508.38612 243.64153,506.7351 244.74539,505.4116 C 246.19087,502.45263 248.52487,500.41875 251.05486,498.3736 C 254.34333,495.95986 257.62,493.46603 260.34283,490.40605 C 262.62574,487.78364 264.6746,485.00668 266.69154,482.18121 C 267.54852,480.97103 269.3577,478.59829 269.36122,477.12705 C 268.59185,475.59378 266.80704,474.64028 265.43326,473.71534 C 263.17722,472.72952 260.82712,472.64414 258.38431,472.75064 C 255.3045,472.75274 252.21532,472.74613 249.15104,473.09798 C 247.51465,473.33953 245.94133,473.59462 244.39524,474.2139 C 243.94991,474.39228 242.67902,475.06855 243.09199,474.82444 C 252.09307,469.5038 265.80482,461.68497 258.37157,465.92612 C 255.47268,467.47598 253.71039,469.90775 252.86575,473.09615 C 251.59251,476.64658 250.50314,480.40756 250.64073,484.20788 C 250.71717,487.03119 250.6907,489.90625 251.42056,492.65549 C 252.36092,495.25356 254.06554,497.48332 255.83759,499.57667 C 259.10984,502.9722 263.26855,505.2219 267.32851,507.54317 C 274.27689,511.32141 281.37369,515.46028 288.83632,518.14142 C 289.91522,518.52904 291.05722,518.71124 292.16766,518.99614 L 275.03671,531.44251 z"
         id="path3303"
         style="opacity:0.8;fill:none;fill-opacity:1;stroke:#000000;stroke-width:4;stroke-linecap:butt;stroke-linejoin:round;stroke-miterlimit:4;stroke-dasharray:none;stroke-dashoffset:0;stroke-opacity:1" />
      <path
         inkscape:export-ydpi="90"
         inkscape:export-xdpi="90"
         inkscape:export-filename="/home/matt/Proyectos/CarmenSD/main.png"
         d="M 349.32243,471.44251 C 342.00836,471.69668 334.77867,474.49649 327.92855,476.90959 C 324.15444,478.36161 320.24746,479.6121 316.58053,481.33647 C 315.68465,481.75776 313.11541,483.25314 313.97611,482.76397 C 330.32546,473.47195 334.09838,470.46854 327.74528,475.32007 C 324.52031,478.09176 322.43342,481.75312 320.83705,485.63455 C 319.47253,489.52173 319.3116,493.64799 319.22221,497.72414 C 319.16027,500.83548 321.05477,502.60694 323.13159,504.61495 C 325.38729,506.61442 328.1803,507.23252 331.08546,507.54801 C 333.87501,507.92485 336.38007,507.42073 338.70645,505.85594 C 300.54268,527.63469 318.44771,518.71792 322.96763,514.55411 C 324.77934,512.88515 326.47298,511.08413 328.28727,509.41186 C 331.21264,506.85251 333.78722,503.94627 335.91299,500.69713 C 337.8248,497.9312 338.5143,494.74269 339.18155,491.52117 C 339.92117,488.72952 340.3227,485.88063 340.5384,483.00628 C 340.79256,480.2127 340.7421,477.47565 340.03205,474.75776 C 339.85068,474.31944 339.70723,473.86342 339.48792,473.44278 C 339.43802,473.34705 338.76078,472.12626 338.31954,472.12894 C 338.17159,472.12984 337.95444,472.57413 338.08597,472.50637 C 361.80679,460.28571 362.40174,460.02057 355.74175,463.12427 C 354.77853,466.38985 354.94915,469.9034 354.89031,473.28052 C 354.69862,477.82008 354.88462,482.32328 355.59141,486.80975 C 357.32651,495.95654 360.22986,504.79941 362.99954,513.66905 C 364.55716,519.08101 366.39292,524.40814 367.85499,529.84718 C 368.76685,533.22417 369.11552,536.69883 369.2752,540.18081 C 369.80236,545.74212 367.82265,550.8948 366.22981,556.12428 C 363.92389,563.44101 361.64814,570.76988 358.46916,577.76321 C 353.67444,586.75972 343.81144,590.55285 334.41047,594.39731 C 331.43436,595.48098 328.26301,595.45418 325.14274,595.54899 C 321.0479,595.38245 317.18808,594.28435 313.57236,592.39027 C 310.44124,590.52375 308.63612,587.70314 307.49987,584.33086 C 306.50851,580.96421 306.38916,577.53551 306.7675,574.07537 C 306.99337,569.89015 308.73384,566.16766 310.38593,562.40116 C 311.87912,558.22776 314.46522,554.69112 316.8516,551.0198 C 318.64336,548.11051 320.57581,545.28121 322.60129,542.52957 C 324.30971,540.62497 325.4829,538.35215 326.59349,536.0687 C 326.74815,535.71538 326.90282,535.36206 327.05749,535.00874 L 346.22965,526.3926 C 346.03891,526.68877 345.84818,526.98493 345.65745,527.28109 C 344.76326,529.81069 343.36778,532.23497 341.7716,534.37736 C 339.46402,536.85172 337.78132,539.87537 335.84796,542.64146 C 333.60018,546.37546 330.45842,549.54777 329.10886,553.79731 C 327.60254,557.39921 325.59675,560.8856 325.39482,564.86727 C 324.96598,568.03623 324.90294,571.17706 325.73423,574.30416 C 326.63644,577.18431 328.22652,579.50824 330.95433,580.96307 C 334.38159,582.61877 338.02402,583.48161 341.85322,583.28562 C 344.93249,583.08423 348.02108,582.76461 350.83472,581.39088 C 357.92352,578.04482 351.78091,580.90182 335.17241,590.70636 C 334.80272,590.9246 335.95818,590.34875 336.31039,590.1033 C 337.77226,589.08459 338.61351,587.47746 339.79317,586.18716 C 343.68499,579.42145 346.16818,571.96808 348.49005,564.54663 C 349.79509,559.69877 351.00391,554.77801 350.70935,549.71923 C 350.63831,546.34176 350.46019,542.95731 349.72983,539.64688 C 348.46266,534.11665 346.7032,528.7048 345.64234,523.12255 C 343.95756,516.44559 342.14661,509.7574 339.83746,503.26404 C 339.32155,501.81328 338.64615,500.42224 338.13783,498.9688 C 337.85085,498.14825 337.6826,497.29088 337.45499,496.45192 C 336.57186,491.88351 336.36592,487.29276 336.48885,482.64417 C 336.46491,479.1233 336.44333,475.59739 336.62609,472.08042 C 336.36443,460.65445 355.67886,453.98858 358.36139,464.76235 C 359.26424,467.67143 359.49907,470.60357 359.21918,473.64004 C 359.05483,476.61632 358.76409,479.5903 357.97665,482.4766 C 357.1132,485.83591 356.81331,489.35818 354.85125,492.35319 C 352.78529,495.75555 350.47171,498.95509 347.42497,501.57506 C 346.05607,502.83869 344.5872,504.05413 343.29242,505.39422 C 342.593,506.11812 342.1745,507.14921 341.31945,507.68034 C 335.08139,511.55517 328.69398,515.18423 322.38124,518.93618 C 319.65108,519.95853 316.87463,520.10411 314.00306,519.57216 C 310.78901,518.9585 307.81742,517.83468 305.40047,515.53561 C 302.88475,513.15629 300.701,510.76914 300.74884,507.0722 C 300.89142,502.81684 300.96457,498.48631 302.11513,494.36 C 303.47949,490.16956 305.64516,486.29402 308.62841,483.0319 C 318.48815,474.19794 330.96913,469.07893 343.32198,464.93282 C 349.81906,462.78722 356.4353,460.49937 363.17001,459.20644 C 363.63159,459.11783 365.8112,459.02677 366.45338,458.99614 L 349.32243,471.44251 z"
         id="path3305"
         style="opacity:0.8;fill:none;fill-opacity:1;stroke:#000000;stroke-width:4;stroke-linecap:butt;stroke-linejoin:round;stroke-miterlimit:4;stroke-dasharray:none;stroke-dashoffset:0;stroke-opacity:1" />
      <path
         inkscape:export-ydpi="90"
         inkscape:export-xdpi="90"
         inkscape:export-filename="/home/matt/Proyectos/CarmenSD/main.png"
         d="M 406.46528,471.44251 C 404.75991,471.4816 402.9274,471.02357 401.27684,471.63849 C 400.89729,471.77989 399.86883,472.43989 400.22177,472.24119 C 405.93279,469.02603 411.64133,465.80644 417.35111,462.58907 C 414.9124,464.18696 413.1827,466.49995 411.96562,469.11129 C 410.68943,471.81786 409.98659,474.67483 409.56376,477.62007 C 409.17864,480.94267 408.90893,484.23058 410.27917,487.34242 C 412.0288,490.59329 414.56926,493.55029 417.4764,495.83047 C 419.69894,497.73584 422.52333,498.51221 425.20461,499.53015 C 427.95105,500.42639 430.86955,500.44297 433.7278,500.54822 C 437.42432,500.64304 441.17441,500.85384 444.67115,499.48622 C 451.57436,495.2332 443.1908,500.41786 429.29884,508.18414 C 428.8314,508.44546 430.19711,507.59859 430.62043,507.27058 C 431.83655,506.32827 432.65857,505.28168 433.47254,503.996 C 434.89038,501.37962 435.82668,498.53381 436.70943,495.70118 C 437.71579,492.9446 438.50724,490.15286 438.927,487.24831 C 439.19717,484.47843 439.38867,481.67646 439.16766,478.89798 C 438.71169,476.64706 437.38063,475.20857 435.56677,473.9275 C 433.31244,472.4546 431.0978,470.87106 428.63658,469.75175 C 426.03007,468.45898 423.68233,466.71218 421.06652,465.44886 C 418.45512,464.38897 416.37816,464.20123 413.66565,464.80369 C 411.48307,465.21118 409.14875,465.75641 407.26073,466.96786 C 438.92976,449.0927 425.48819,456.08219 418.82227,460.80905 C 418.50226,461.03135 418.18226,461.25364 417.86225,461.47593 L 398.40267,469.31672 C 398.70533,469.02648 399.008,468.73624 399.31067,468.446 C 407.34655,463.391 414.36714,457.19129 423.71452,453.87342 C 425.93692,453.15713 428.12282,452.39503 430.47884,452.23626 C 433.28089,452.07206 436.03478,452.73979 438.54367,453.99441 C 441.06067,455.40472 443.49921,456.94199 446.06349,458.27085 C 448.57823,459.59938 451.01868,461.10344 453.35566,462.72128 C 455.4583,464.49044 457.05295,466.44252 457.67435,469.19709 C 458.10333,472.1082 457.83464,475.06848 457.66055,477.99645 C 457.33573,480.99914 456.76215,483.95839 455.56712,486.7515 C 454.7758,489.70838 453.76258,492.63533 452.51046,495.42499 C 448.65369,504.288 435.60904,509.51858 428.13649,512.20799 C 424.43331,512.87713 420.70513,512.79355 416.95497,512.65099 C 413.83834,512.56161 410.69802,512.46492 407.79145,511.19619 C 404.98144,510.01557 402.10086,508.97876 399.84063,506.83244 C 396.89526,504.1338 394.2021,500.99419 392.12189,497.58967 C 390.46621,494.02009 390.67644,490.73921 390.90709,486.88055 C 391.12252,483.77592 391.70163,480.72301 393.01847,477.87814 C 393.99979,474.98962 395.5355,472.37743 397.80381,470.29873 C 415.45008,460.11132 411.33116,459.20379 423.59624,458.99614 L 406.46528,471.44251 z"
         id="path3309"
         style="opacity:0.8;fill:none;fill-opacity:1;stroke:#000000;stroke-width:4;stroke-linecap:butt;stroke-linejoin:round;stroke-miterlimit:4;stroke-dasharray:none;stroke-dashoffset:0;stroke-opacity:1" />
      <path
         inkscape:export-ydpi="90"
         inkscape:export-xdpi="90"
         inkscape:export-filename="/home/matt/Proyectos/CarmenSD/main.png"
         d="M 260.83387,262.71006 C 260.51729,266.72584 260.60681,270.7597 260.64956,274.78374 C 260.69212,278.02385 260.71787,281.26411 260.73097,284.50446 C 261.01621,287.35126 261.57097,290.15797 261.86342,293.00648 C 262.04943,295.88021 262.75465,298.68128 263.1457,301.53052 C 263.43064,304.41631 264.15955,307.22709 264.5678,310.09675 C 264.86289,312.9837 265.59028,315.79644 265.99825,318.66858 C 268.06233,329.32333 272.10427,319.84962 248.60704,332.31956 C 249.5565,330.57296 249.23837,328.0189 249.26482,326.04919 C 249.28573,323.16586 249.274,320.2824 249.26894,317.39903 C 249.0464,314.71502 249.50842,312.12331 250.00843,309.50615 C 250.19136,306.58468 251.11377,303.8949 252.07695,301.16233 C 253.08606,298.15295 254.05213,295.13732 255.14081,292.15611 C 255.7522,289.69245 256.81763,287.41069 257.95209,285.15439 C 258.99633,283.14956 260.48671,281.47139 261.9338,279.76089 C 263.40115,278.32026 264.69032,276.70022 266.4126,275.55372 C 272.79518,270.73767 279.44858,265.28301 287.35025,263.79142 C 288.62345,263.55108 289.82121,263.49365 291.07457,263.1381 C 294.13181,262.38572 297.31991,261.9789 300.45623,262.30345 C 304.04904,262.54889 306.02941,263.13619 308.23451,266.03416 C 309.30585,267.96247 310.25747,269.98145 311.03599,272.0495 L 292.69349,282.22061 C 292.03275,280.35233 291.20251,278.52126 290.23431,276.79799 C 288.37017,274.63192 286.32236,274.61562 283.5589,274.46409 C 280.46048,274.52423 277.41532,275.01808 274.42276,275.82519 C 273.19259,276.0515 271.94229,276.23333 270.77515,276.70711 C 270.43702,276.84436 269.47561,277.36998 269.79027,277.18516 C 283.16451,269.32989 292.79476,263.92642 285.96788,267.76103 C 284.2212,269.26612 286.17631,267.70898 284.26466,268.85863 C 283.11862,269.54784 282.32479,270.81226 281.38274,271.72657 C 279.70228,273.07591 278.31527,274.88387 277.13548,276.67045 C 275.70272,278.59629 274.74285,280.99192 274.08973,283.28455 C 273.09487,286.30543 271.76318,289.19399 270.89991,292.26703 C 270.18668,294.97125 268.79894,297.4349 268.85567,300.31159 C 268.44815,302.85435 267.6,305.30156 267.88344,307.91136 C 267.88604,310.79547 267.89029,313.67958 267.90258,316.56367 C 267.91222,318.89125 267.8465,321.22984 268.02559,323.55017 C 248.62298,334.28675 250.32202,340.15287 247.50806,328.39858 C 247.15488,325.51336 246.41087,322.7074 246.07787,319.8272 C 245.7238,316.94162 244.97755,314.13492 244.65099,311.25343 C 244.30763,308.37099 243.57521,305.55575 243.33306,302.66904 C 243.0823,299.75072 242.59075,296.87404 242.12617,293.98408 C 242.13933,290.71608 242.16522,287.44816 242.20758,284.1804 C 242.24921,280.21925 242.34739,276.24677 242.02327,272.29455 L 260.83387,262.71006 z"
         id="path3311"
         style="opacity:0.8;fill:none;fill-opacity:1;stroke:#000000;stroke-width:4;stroke-linecap:butt;stroke-linejoin:round;stroke-miterlimit:4;stroke-dasharray:none;stroke-dashoffset:0;stroke-opacity:1" />
      <path
         inkscape:export-ydpi="90"
         inkscape:export-xdpi="90"
         inkscape:export-filename="/home/matt/Proyectos/CarmenSD/main.png"
         d="M 463.60814,322.87108 C 460.1692,321.84992 456.90194,320.36392 453.53387,319.14324 C 449.48269,317.39196 445.07541,316.49893 441.33923,314.09321 C 438.79029,312.12528 436.41405,310.03129 434.3175,307.58571 C 431.98139,304.9975 431.01837,301.81645 429.85068,298.63313 C 428.73118,295.93589 428.24742,293.08125 427.98671,290.19211 C 427.79394,287.3489 427.80962,284.49706 427.81062,281.64891 C 427.70623,279.00667 427.81215,276.42629 428.84137,273.96722 C 429.6634,272.0168 431.2818,270.61222 432.42218,268.87023 C 437.20802,262.75017 449.31131,258.43082 452.90616,256.30763 C 458.52046,252.99173 441.62381,262.84795 435.95253,266.06543 C 435.814,266.14403 436.70093,265.53147 437.8685,264.72235 C 445.62567,258.19999 453.51954,252.80534 463.43977,252.04766 C 466.43568,251.87844 469.43796,251.90101 472.43735,251.90828 C 475.23446,251.82714 477.96682,251.78824 480.52088,253.04415 C 482.77487,254.74627 483.3362,257.19352 482.90277,259.85211 C 481.76764,262.86682 479.7459,265.49933 477.79104,268.0345 C 475.79626,270.80609 473.74475,273.50812 471.34347,275.94095 C 468.83798,278.04113 466.39536,280.21712 464.12019,282.56583 C 461.78142,285.1154 459.77603,287.93595 457.80578,290.7721 C 456.71337,292.289 455.66448,293.82168 454.71644,295.43278 L 435.51352,303.83928 C 436.66159,302.3029 437.36518,300.48445 438.75826,299.1151 C 440.624,296.15138 442.73287,293.33096 444.95883,290.6296 C 447.05509,288.09218 449.54066,285.90716 452.02166,283.75171 C 454.81056,281.83329 456.77002,278.94637 458.69441,276.19869 C 460.60569,273.87549 462.29714,271.40867 463.92773,268.88574 C 464.62133,267.33306 464.79612,265.62879 463.05047,264.73448 C 460.60031,264.00903 458.06692,264.19434 455.53737,264.18478 C 452.58812,264.18727 449.62967,264.17334 446.69425,264.49902 C 445.5734,264.66379 444.8876,264.72746 443.79582,265.03456 C 443.34539,265.16126 442.06719,265.73146 442.46805,265.4901 C 471.34302,248.1042 463.41587,253.12114 457.33559,256.85636 C 451.60181,262.58076 443.25805,264.91738 436.57658,269.50028 C 431.19138,273.19405 447.91146,263.01105 453.53069,259.68411 C 454.09646,259.34914 451.12871,260.59573 451.75748,260.54804 C 450.42945,262.0579 449.5371,263.90404 447.97241,265.23793 C 446.66098,267.8269 446.21283,269.11774 446.43366,272.16213 C 446.42955,274.95783 446.41049,277.75565 446.54664,280.5489 C 446.73292,283.27357 447.09204,285.97812 448.08927,288.54291 C 449.10981,291.51422 449.96774,294.43072 452.15905,296.81618 C 454.16633,299.06548 456.43761,301.00535 458.83701,302.83079 C 462.45453,305.0723 466.67903,306.00718 470.5813,307.63532 C 473.8559,308.80489 477.2163,310.36534 480.73909,310.42471 L 463.60814,322.87108 z"
         id="path3313"
         style="opacity:0.8;fill:none;fill-opacity:1;stroke:#000000;stroke-width:4;stroke-linecap:butt;stroke-linejoin:round;stroke-miterlimit:4;stroke-dasharray:none;stroke-dashoffset:0;stroke-opacity:1" />
      <path
         inkscape:export-ydpi="90"
         inkscape:export-xdpi="90"
         inkscape:export-filename="/home/matt/Proyectos/CarmenSD/main.png"
         d="M 520.83387,255.56721 C 520.51729,259.58298 520.60681,263.61684 520.64956,267.64088 C 520.69212,270.88099 520.71787,274.12126 520.73097,277.36161 C 520.83697,280.29665 520.14551,283.17225 519.76012,286.06554 C 519.41735,288.869 519.35908,291.69518 519.31858,294.51583 C 519.30671,297.77634 518.6483,300.99172 518.28906,304.22601 C 517.98358,307.16894 517.92311,310.12851 517.88651,313.08456 C 517.97784,315.06507 517.63024,317.16516 518.08385,319.08251 C 497.91038,331.05104 497.8719,333.90539 499.85035,321.96459 C 500.38157,319.10761 500.35389,316.18921 500.91651,313.34083 C 501.6064,310.8346 501.76626,308.24168 502.11727,305.68 C 502.5589,302.6943 503.43451,299.82909 504.51413,297.02032 C 505.41258,294.54461 506.97049,292.4388 508.46332,290.30361 C 509.85742,288.16622 511.60544,286.28498 513.24742,284.33808 C 514.65508,282.73496 516.20537,281.2689 517.64878,279.70105 C 519.32369,277.92116 521.32632,276.54075 523.35013,275.1899 C 534.03552,267.8983 538.99721,263.85662 549.56869,263.38196 C 552.86991,263.55291 555.18753,264.91469 557.38507,267.27999 C 559.35714,269.52844 561.08706,271.9304 562.54033,274.54099 C 563.87289,277.02944 564.66644,279.73929 565.73927,282.33404 C 566.92897,284.83234 567.41849,287.52357 567.69666,290.25169 C 567.82065,292.74119 568.5394,295.14151 568.89851,297.60311 C 569.24231,300.36193 569.2772,303.14574 569.30925,305.92184 C 569.3352,308.59661 569.16789,311.2554 569.66412,313.8935 C 570.19328,316.27785 570.33981,318.70422 570.96825,321.06481 C 571.31949,322.27005 571.5268,323.50593 571.7268,324.74255 L 553.19565,334.54507 C 553.02527,333.38188 552.84902,332.21875 552.51831,331.08723 C 551.85806,328.67628 551.64832,326.22566 551.16119,323.77675 C 550.59947,321.01041 550.65262,318.24755 550.69309,315.43123 C 550.66923,312.74427 550.64932,310.05073 550.35678,307.37659 C 550.02471,304.87318 549.26993,302.44438 549.13938,299.92229 C 548.9337,297.3871 548.56428,294.87781 547.47817,292.54697 C 546.46298,290.02333 545.65332,287.41555 544.41809,284.98148 C 543.02713,282.5564 541.52353,280.19305 539.54812,278.18962 C 537.60412,276.3395 535.47642,275.54319 532.74522,275.78842 C 524.14858,276.63337 512.71326,284.3618 542.88313,267.66785 C 540.82626,268.73464 538.70878,270.09032 537.12706,271.72105 C 535.44992,273.02818 534.0954,274.74903 532.62895,276.27808 C 530.75622,277.93961 529.37956,280.05603 527.63945,281.8567 C 526.36784,284.08439 524.60932,285.94868 523.43615,288.2364 C 522.40094,290.94107 521.29163,293.60887 520.91529,296.50874 C 520.35775,299.05539 520.54572,301.72171 519.80276,304.24734 C 519.0646,307.06098 518.93801,309.90087 518.58556,312.78853 C 518.37873,314.14015 518.00928,315.56009 517.92664,316.92505 C 517.36065,326.27282 532.73562,312.4422 499.04717,328.81267 C 499.80389,326.9077 498.90927,324.52218 499.26062,322.54892 C 499.29032,319.52424 499.3389,316.49596 499.62846,313.48272 C 499.96088,310.31311 500.61184,307.16663 500.68653,303.9824 C 500.71149,301.09416 500.74387,298.20126 501.02652,295.32426 C 501.34645,292.48621 502.0602,289.69113 502.12617,286.84122 C 502.13933,283.57322 502.16522,280.30531 502.20758,277.03754 C 502.24921,273.0764 502.34739,269.10391 502.02327,265.15169 L 520.83387,255.56721 z"
         id="path3315"
         style="opacity:0.8;fill:none;fill-opacity:1;stroke:#000000;stroke-width:4;stroke-linecap:butt;stroke-linejoin:round;stroke-miterlimit:4;stroke-dasharray:none;stroke-dashoffset:0;stroke-opacity:1" />
    </g>
    <g
       id="g3398"
       inkscape:export-filename="/home/matt/Proyectos/CarmenSD/nuevojuego.png"
       inkscape:export-xdpi="90"
       inkscape:export-ydpi="90"
       transform="translate(-21.428571,548.57143)">
      <rect
         y="393.77176"
         x="218.12675"
         height="44.035057"
         width="259.74933"
         id="rect3354"
         style="opacity:0.8;fill:none;fill-opacity:1;stroke:#000000;stroke-width:7.10780239;stroke-linecap:butt;stroke-linejoin:round;stroke-miterlimit:4;stroke-dasharray:none;stroke-dashoffset:0;stroke-opacity:1" />
      <flowRoot
         transform="translate(-255.87749,-91.428572)"
         style="font-size:40px;font-style:normal;font-weight:normal;fill:#000000;fill-opacity:1;stroke:none;stroke-width:1px;stroke-linecap:butt;stroke-linejoin:miter;stroke-opacity:1;font-family:Bitstream Vera Sans"
         id="flowRoot3356"
         xml:space="preserve"><flowRegion
           id="flowRegion3358"><rect
             y="312.36218"
             x="322.85715"
             height="55.714287"
             width="572.85712"
             id="rect3360" /></flowRegion><flowPara
           id="flowPara3362">Base de datos de la interpol</flowPara></flowRoot>      <flowRoot
         transform="translate(-111.42857,17.142857)"
         style="font-size:40px;font-style:normal;font-weight:normal;fill:#000000;fill-opacity:1;stroke:none;stroke-width:1px;stroke-linecap:butt;stroke-linejoin:miter;stroke-opacity:1;font-family:Bitstream Vera Sans"
         id="flowRoot3364"
         xml:space="preserve"><flowRegion
           id="flowRegion3366"><rect
             y="302.36218"
             x="198.57143"
             height="48.57143"
             width="304.28571"
             id="rect3368" /></flowRegion><flowPara
           id="flowPara3370">Nombre :</flowPara></flowRoot>      <g
         transform="translate(6.2156906,0)"
         id="g3376">
        <rect
           style="opacity:0.8;fill:none;fill-opacity:1;stroke:#000000;stroke-width:4;stroke-linecap:butt;stroke-linejoin:round;stroke-miterlimit:4;stroke-dasharray:none;stroke-dashoffset:0;stroke-opacity:1"
           id="rect3372"
           width="150"
           height="74.285713"
           x="104.28571"
           y="548.07648"
           ry="37.142857" />
        <rect
           style="opacity:0.8;fill:none;fill-opacity:1;stroke:#000000;stroke-width:4;stroke-linecap:butt;stroke-linejoin:round;stroke-miterlimit:4;stroke-dasharray:none;stroke-dashoffset:0;stroke-opacity:1"
           id="rect3374"
           width="150"
           height="74.285713"
           x="429.28574"
           y="548.07648"
           ry="37.142857" />
      </g>
      <flowRoot
         inkscape:export-ydpi="90"
         inkscape:export-xdpi="90"
         inkscape:export-filename="/home/matt/Proyectos/CarmenSD/main.png"
         transform="matrix(0.6471087,0,0,0.542619,371.29879,346.25668)"
         style="font-size:40px;font-style:normal;font-weight:normal;fill:#000000;fill-opacity:1;stroke:none;stroke-width:1px;stroke-linecap:butt;stroke-linejoin:miter;stroke-opacity:1;font-family:Bitstream Vera Sans"
         id="flowRoot3380"
         xml:space="preserve"><flowRegion
           id="flowRegion3382"><rect
             y="410.93362"
             x="138.57143"
             height="56.694035"
             width="163.50293"
             id="rect3384" /></flowRegion><flowPara
           id="flowPara3386">Aceptar</flowPara></flowRoot>      <flowRoot
         inkscape:export-ydpi="90"
         inkscape:export-xdpi="90"
         inkscape:export-filename="/home/matt/Proyectos/CarmenSD/main.png"
         transform="matrix(0.6471087,0,0,0.542619,37.112074,347.68524)"
         style="font-size:40px;font-style:normal;font-weight:normal;fill:#000000;fill-opacity:1;stroke:none;stroke-width:1px;stroke-linecap:butt;stroke-linejoin:miter;stroke-opacity:1;font-family:Bitstream Vera Sans"
         id="flowRoot3388"
         xml:space="preserve"><flowRegion
           id="flowRegion3390"><rect
             y="410.93362"
             x="138.57143"
             height="56.694035"
             width="192.20201"
             id="rect3392" /></flowRegion><flowPara
           id="flowPara3394">Cancelar</flowPara></flowRoot>      <path
         sodipodi:nodetypes="cc"
         id="path3396"
         d="M 72.857143,276.6479 L 621.42857,275.21933"
         style="fill:none;fill-rule:evenodd;stroke:#000000;stroke-width:5;stroke-linecap:butt;stroke-linejoin:miter;stroke-miterlimit:4;stroke-dasharray:none;stroke-opacity:1" />
    </g>
    <g
       id="g3445"
       transform="translate(-48.212482,132.51051)"
       inkscape:export-filename="/home/matt/Proyectos/CarmenSD/ingame.png"
       inkscape:export-xdpi="90"
       inkscape:export-ydpi="90">
      <path
         transform="matrix(0.4943694,-0.2887956,0.2850129,0.4878941,176.03518,335.28616)"
         d="M 278.57142,404.50504 A 41.42857,40.714287 0 1 1 195.71428,404.50504 A 41.42857,40.714287 0 1 1 278.57142,404.50504 z"
         sodipodi:ry="40.714287"
         sodipodi:rx="41.42857"
         sodipodi:cy="404.50504"
         sodipodi:cx="237.14285"
         id="path3433"
         style="fill:none;fill-rule:evenodd;stroke:#000000;stroke-width:4;stroke-linecap:butt;stroke-linejoin:miter;stroke-miterlimit:4;stroke-dasharray:none;stroke-opacity:1"
         sodipodi:type="arc" />
      <path
         id="path3435"
         d="M 427.32576,479.67261 L 477.31429,500.10477 L 482.85894,486.93896 L 432.87041,466.5068 L 427.32576,479.67261 z"
         style="fill:none;fill-rule:evenodd;stroke:#000000;stroke-width:2.29999995;stroke-linecap:butt;stroke-linejoin:miter;stroke-miterlimit:4;stroke-dasharray:none;stroke-opacity:1" />
      <path
         transform="matrix(0.4085176,-0.2386436,0.2355178,0.4031667,216.4263,357.36143)"
         d="M 278.57142,404.50504 A 41.42857,40.714287 0 1 1 195.71428,404.50504 A 41.42857,40.714287 0 1 1 278.57142,404.50504 z"
         sodipodi:ry="40.714287"
         sodipodi:rx="41.42857"
         sodipodi:cy="404.50504"
         sodipodi:cx="237.14285"
         id="path3443"
         style="fill:none;fill-rule:evenodd;stroke:#000000;stroke-width:4;stroke-linecap:butt;stroke-linejoin:miter;stroke-miterlimit:4;stroke-dasharray:none;stroke-opacity:1"
         sodipodi:type="arc" />
    </g>
    <g
       id="g3335">
      <g
         inkscape:export-ydpi="90"
         inkscape:export-xdpi="90"
         inkscape:export-filename="/home/matt/Proyectos/CarmenSD/ingame.png"
         transform="matrix(0.8122016,0,0,0.6681183,237.47933,379.7794)"
         id="g3488">
        <path
           style="fill:none;fill-rule:evenodd;stroke:#000000;stroke-width:1px;stroke-linecap:butt;stroke-linejoin:miter;stroke-opacity:1"
           d="M 299.28571,291.6479 L 299.28571,338.07647 L 281.42857,368.79075 L 281.42857,377.36218 L 384.28571,373.79075 L 384.28571,363.79075 L 363.57143,333.79075 L 362.14286,290.21932 L 299.28571,291.6479 z"
           id="path3452"
           sodipodi:nodetypes="ccccccccc" />
        <path
           style="fill:none;fill-rule:evenodd;stroke:#000000;stroke-width:1px;stroke-linecap:butt;stroke-linejoin:miter;stroke-opacity:1"
           d="M 280.71429,368.79075 L 384.28571,364.50504"
           id="path3454"
           sodipodi:nodetypes="cc" />
        <path
           style="fill:none;fill-rule:evenodd;stroke:#000000;stroke-width:1px;stroke-linecap:butt;stroke-linejoin:miter;stroke-opacity:1"
           d="M 299.25769,338.18433 L 363.90745,333.89118"
           id="path3456"
           sodipodi:nodetypes="cc" />
        <path
           style="fill:none;fill-rule:evenodd;stroke:#000000;stroke-width:1px;stroke-linecap:butt;stroke-linejoin:miter;stroke-opacity:1"
           d="M 302.03561,295.25285 L 301.78307,334.90134 L 360.11938,331.3658 L 358.85669,292.47493 L 302.03561,295.25285 z"
           id="path3458" />
        <path
           style="fill:none;fill-rule:evenodd;stroke:#000000;stroke-width:0.71192181px;stroke-linecap:butt;stroke-linejoin:miter;stroke-opacity:1"
           d="M 301.64839,341.06874 L 292.80019,356.5111 L 371.62763,353.02849 L 361.45934,337.28267 L 301.64839,341.06874 z"
           id="path3460"
           sodipodi:nodetypes="ccccc" />
        <path
           style="fill:none;fill-rule:evenodd;stroke:#000000;stroke-width:1px;stroke-linecap:butt;stroke-linejoin:miter;stroke-opacity:1"
           d="M 317.94552,364.95337 L 318.95567,357.37723 L 342.94679,356.36708 L 344.20948,364.4483 L 317.94552,364.95337 z"
           id="path3462" />
        <path
           style="fill:none;fill-rule:evenodd;stroke:#000000;stroke-width:1px;stroke-linecap:butt;stroke-linejoin:miter;stroke-opacity:1"
           d="M 295.46962,352.83154 L 369.46329,349.29601"
           id="path3464"
           sodipodi:nodetypes="cc" />
        <path
           style="fill:none;fill-rule:evenodd;stroke:#000000;stroke-width:0.9696191px;stroke-linecap:butt;stroke-linejoin:miter;stroke-opacity:1"
           d="M 297.09593,348.80612 L 366.06922,345.24021"
           id="path3466"
           sodipodi:nodetypes="cc" />
        <path
           style="fill:none;fill-rule:evenodd;stroke:#000000;stroke-width:0.94430649px;stroke-linecap:butt;stroke-linejoin:miter;stroke-opacity:1"
           d="M 299.60865,345.03071 L 364.56664,341.43948"
           id="path3468"
           sodipodi:nodetypes="cc" />
        <path
           style="fill:none;fill-rule:evenodd;stroke:#000000;stroke-width:1px;stroke-linecap:butt;stroke-linejoin:miter;stroke-opacity:1"
           d="M 306.83384,340.70971 L 300.26784,355.60946"
           id="path3470"
           sodipodi:nodetypes="cc" />
        <path
           style="fill:none;fill-rule:evenodd;stroke:#000000;stroke-width:1px;stroke-linecap:butt;stroke-linejoin:miter;stroke-opacity:1"
           d="M 314.40999,340.33091 L 307.84399,355.23066"
           id="path3472"
           sodipodi:nodetypes="cc" />
        <path
           style="fill:none;fill-rule:evenodd;stroke:#000000;stroke-width:1px;stroke-linecap:butt;stroke-linejoin:miter;stroke-opacity:1"
           d="M 321.73359,340.33091 L 315.16759,355.23066"
           id="path3474"
           sodipodi:nodetypes="cc" />
        <path
           style="fill:none;fill-rule:evenodd;stroke:#000000;stroke-width:1px;stroke-linecap:butt;stroke-linejoin:miter;stroke-opacity:1"
           d="M 342.4417,339.06822 L 349.0077,353.96797"
           id="path3476"
           sodipodi:nodetypes="cc" />
        <path
           style="fill:none;fill-rule:evenodd;stroke:#000000;stroke-width:1px;stroke-linecap:butt;stroke-linejoin:miter;stroke-opacity:1"
           d="M 349.51277,338.56314 L 356.07877,353.46289"
           id="path3478"
           sodipodi:nodetypes="cc" />
        <path
           style="fill:none;fill-rule:evenodd;stroke:#000000;stroke-width:1.05876172px;stroke-linecap:butt;stroke-linejoin:miter;stroke-opacity:1"
           d="M 355.60307,338.33998 L 363.12046,352.92843"
           id="path3480"
           sodipodi:nodetypes="cc" />
        <path
           style="fill:none;fill-rule:evenodd;stroke:#000000;stroke-width:0.78293705px;stroke-linecap:butt;stroke-linejoin:miter;stroke-opacity:1"
           d="M 328.15558,339.46476 L 323.39282,352.05619"
           id="path3482"
           sodipodi:nodetypes="cc" />
        <path
           style="fill:none;fill-rule:evenodd;stroke:#000000;stroke-width:0.78293705px;stroke-linecap:butt;stroke-linejoin:miter;stroke-opacity:1"
           d="M 335.76719,338.70715 L 340.52995,351.29858"
           id="path3484"
           sodipodi:nodetypes="cc" />
        <path
           style="fill:none;fill-rule:evenodd;stroke:#000000;stroke-width:0.7631619px;stroke-linecap:butt;stroke-linejoin:miter;stroke-opacity:1"
           d="M 331.38768,339.20234 L 332.28254,351.05593"
           id="path3486"
           sodipodi:nodetypes="cc" />
      </g>
      <flowRoot
         inkscape:export-ydpi="90"
         inkscape:export-xdpi="90"
         inkscape:export-filename="/home/matt/Proyectos/CarmenSD/ingame.png"
         transform="matrix(0.2847228,0,0,0.2847228,441.05346,471.65797)"
         style="font-size:40px;font-style:normal;font-weight:normal;fill:#000000;fill-opacity:1;stroke:none;stroke-width:1px;stroke-linecap:butt;stroke-linejoin:miter;stroke-opacity:1;font-family:Bitstream Vera Sans"
         id="flowRoot3508"
         xml:space="preserve"><flowRegion
           id="flowRegion3510"><rect
             y="383.79074"
             x="159.28572"
             height="48.57143"
             width="144.28572"
             id="rect3512" /></flowRegion><flowPara
           id="flowPara3514">crimen</flowPara></flowRoot>    </g>
    <g
       id="g3532"
       transform="translate(9.0913731,187.38329)"
       inkscape:export-filename="/home/matt/Proyectos/CarmenSD/ingame.png"
       inkscape:export-xdpi="90"
       inkscape:export-ydpi="90">
      <path
         sodipodi:nodetypes="cc"
         id="path3516"
         d="M 190.67455,442.40192 L 296.17117,440.89387"
         style="fill:none;fill-rule:evenodd;stroke:#000000;stroke-width:0.92051721px;stroke-linecap:butt;stroke-linejoin:miter;stroke-opacity:1" />
      <path
         sodipodi:nodetypes="cc"
         id="path3520"
         d="M 231.57747,426.32015 L 249.25514,425.81508"
         style="fill:none;fill-rule:evenodd;stroke:#000000;stroke-width:1px;stroke-linecap:butt;stroke-linejoin:miter;stroke-opacity:1" />
      <path
         sodipodi:nodetypes="cc"
         id="path3522"
         d="M 239.93783,419.52822 L 240.3897,441.44584"
         style="fill:none;fill-rule:evenodd;stroke:#000000;stroke-width:1.05320477px;stroke-linecap:butt;stroke-linejoin:miter;stroke-opacity:1" />
      <path
         transform="matrix(0.7080293,0,0,0.6306048,62.515148,162.90053)"
         d="M 220.46579,450.56381 A 8.0812206,7.0710678 0 1 1 204.30335,450.56381 A 8.0812206,7.0710678 0 1 1 220.46579,450.56381 z"
         sodipodi:ry="7.0710678"
         sodipodi:rx="8.0812206"
         sodipodi:cy="450.56381"
         sodipodi:cx="212.38457"
         id="path3524"
         style="fill:#000000;fill-opacity:1;fill-rule:evenodd;stroke:#000000;stroke-width:1px;stroke-linecap:butt;stroke-linejoin:miter;stroke-opacity:1"
         sodipodi:type="arc" />
      <path
         transform="matrix(0.7080293,0,0,0.6306048,121.86162,161.38534)"
         d="M 220.46579,450.56381 A 8.0812206,7.0710678 0 1 1 204.30335,450.56381 A 8.0812206,7.0710678 0 1 1 220.46579,450.56381 z"
         sodipodi:ry="7.0710678"
         sodipodi:rx="8.0812206"
         sodipodi:cy="450.56381"
         sodipodi:cx="212.38457"
         id="path3526"
         style="fill:#000000;fill-opacity:1;fill-rule:evenodd;stroke:#000000;stroke-width:1px;stroke-linecap:butt;stroke-linejoin:miter;stroke-opacity:1"
         sodipodi:type="arc" />
      <path
         id="path3528"
         d="M 190.66629,442.23004 L 197.48482,439.19959 L 291.68155,437.68436 L 295.21708,440.71482 L 190.66629,442.23004 z"
         style="fill:#000000;fill-opacity:1;fill-rule:evenodd;stroke:#000000;stroke-width:1px;stroke-linecap:butt;stroke-linejoin:miter;stroke-opacity:1" />
      <path
         transform="translate(-1.0101525,-1.5152288)"
         d="M 249.50768,443.11392 A 8.207489,7.9549513 0 1 1 233.0927,443.11392 A 8.207489,7.9549513 0 1 1 249.50768,443.11392 z"
         sodipodi:ry="7.9549513"
         sodipodi:rx="8.207489"
         sodipodi:cy="443.11392"
         sodipodi:cx="241.30019"
         id="path3530"
         style="fill:#000000;fill-opacity:1;fill-rule:evenodd;stroke:#000000;stroke-width:1px;stroke-linecap:butt;stroke-linejoin:miter;stroke-opacity:1"
         sodipodi:type="arc" />
    </g>
    <flowRoot
       xml:space="preserve"
       id="flowRoot3541"
       style="font-size:40px;font-style:normal;font-weight:normal;fill:#000000;fill-opacity:1;stroke:none;stroke-width:1px;stroke-linecap:butt;stroke-linejoin:miter;stroke-opacity:1;font-family:Bitstream Vera Sans"
       transform="matrix(0.6076443,0,0,0.5620846,115.14205,352.64276)"
       inkscape:export-filename="/home/matt/Proyectos/CarmenSD/ingame.png"
       inkscape:export-xdpi="90"
       inkscape:export-ydpi="90"><flowRegion
         id="flowRegion3543"><rect
           id="rect3545"
           width="131.86826"
           height="59.21497"
           x="159.28572"
           y="383.79074" /></flowRegion><flowPara
         id="flowPara3547">Salida</flowPara></flowRoot>    <flowRoot
       xml:space="preserve"
       id="flowRoot3549"
       style="font-size:40px;font-style:normal;font-weight:normal;fill:#000000;fill-opacity:1;stroke:none;stroke-width:1px;stroke-linecap:butt;stroke-linejoin:miter;stroke-opacity:1;font-family:Bitstream Vera Sans"
       transform="matrix(0.6076443,0,0,0.5620846,-10.31496,358.9562)"
       inkscape:export-filename="/home/matt/Proyectos/CarmenSD/ingame.png"
       inkscape:export-xdpi="90"
       inkscape:export-ydpi="90"><flowRegion
         id="flowRegion3551"><rect
           id="rect3553"
           width="131.86826"
           height="59.21497"
           x="159.28572"
           y="383.79074" /></flowRegion><flowPara
         id="flowPara3555">Ver</flowPara></flowRoot>    <g
       id="g3565"
       transform="matrix(0.6834369,0,0,0.430964,-5.9728233,427.51172)"
       inkscape:export-filename="/home/matt/Proyectos/CarmenSD/ingame.png"
       inkscape:export-xdpi="90"
       inkscape:export-ydpi="90">
      <path
         d="M 132.83506,462.18057 A 12.626906,11.364216 0 1 1 107.58125,462.18057 A 12.626906,11.364216 0 1 1 132.83506,462.18057 z"
         sodipodi:ry="11.364216"
         sodipodi:rx="12.626906"
         sodipodi:cy="462.18057"
         sodipodi:cx="120.20815"
         id="path3557"
         style="fill:#0042ff;fill-opacity:1;fill-rule:evenodd;stroke:#000000;stroke-width:4;stroke-linecap:butt;stroke-linejoin:miter;stroke-miterlimit:4;stroke-dasharray:none;stroke-opacity:1"
         sodipodi:type="arc" />
      <path
         transform="translate(62.629458,-43.689112)"
         d="M 132.83506,462.18057 A 12.626906,11.364216 0 1 1 107.58125,462.18057 A 12.626906,11.364216 0 1 1 132.83506,462.18057 z"
         sodipodi:ry="11.364216"
         sodipodi:rx="12.626906"
         sodipodi:cy="462.18057"
         sodipodi:cx="120.20815"
         id="path3559"
         style="fill:#0042ff;fill-opacity:1;fill-rule:evenodd;stroke:#000000;stroke-width:4;stroke-linecap:butt;stroke-linejoin:miter;stroke-miterlimit:4;stroke-dasharray:none;stroke-opacity:1"
         sodipodi:type="arc" />
      <path
         transform="translate(90.408653,10.354049)"
         d="M 132.83506,462.18057 A 12.626906,11.364216 0 1 1 107.58125,462.18057 A 12.626906,11.364216 0 1 1 132.83506,462.18057 z"
         sodipodi:ry="11.364216"
         sodipodi:rx="12.626906"
         sodipodi:cy="462.18057"
         sodipodi:cx="120.20815"
         id="path3561"
         style="fill:#0042ff;fill-opacity:1;fill-rule:evenodd;stroke:#000000;stroke-width:4;stroke-linecap:butt;stroke-linejoin:miter;stroke-miterlimit:4;stroke-dasharray:none;stroke-opacity:1"
         sodipodi:type="arc" />
      <path
         id="path3563"
         d="M 132.32998,464.95848 L 197.48482,471.01939 L 176.27162,427.58283 L 132.32998,464.95848 z"
         style="fill:none;fill-rule:evenodd;stroke:#000000;stroke-width:1px;stroke-linecap:butt;stroke-linejoin:miter;stroke-opacity:1" />
    </g>
    <g
       id="g3581"
       transform="matrix(0.6258667,-0.1958285,0.2635651,0.8423524,2.159381,230.92797)"
       inkscape:export-filename="/home/matt/Proyectos/CarmenSD/ingame.png"
       inkscape:export-xdpi="90"
       inkscape:export-ydpi="90">
      <path
         d="M 348.69892,506.37968 C 348.74841,505.52897 348.70678,504.69975 349.04033,503.90137 C 350.6231,501.00571 354.26939,499.29988 357.52344,499.18453 C 358.65079,499.14811 359.77892,499.15357 360.90669,499.15626 C 362.04899,499.25813 362.52688,500.07086 362.77657,501.08954 C 362.83651,501.9815 363.04673,502.8467 363.19882,503.72503 C 363.33635,504.67998 363.39762,505.64748 363.36269,506.6116 C 363.31454,507.46868 362.90013,508.15114 362.41433,508.82501 C 361.86071,509.52396 361.21154,510.13987 360.58186,510.76911 C 358.09767,512.80102 355.02941,514.27076 352.34414,515.83558 C 362.28217,509.25957 359.13844,511.48997 357.10532,513.56305 C 356.63472,514.1298 356.25324,514.74898 356.03782,515.45445 C 355.8289,516.36919 355.82625,517.31362 355.81305,518.24704 C 355.7203,519.15635 355.94229,520.02579 356.10277,520.91081 C 356.12503,521.06319 356.14729,521.21558 356.16955,521.36796 L 349.6448,524.80865 C 349.62522,524.66485 349.60564,524.52105 349.58606,524.37725 C 349.42362,523.44769 349.16805,522.53422 349.25845,521.57965 C 349.26156,520.60503 349.25679,519.62632 349.37936,518.65768 C 349.53206,517.75912 349.79006,517.21202 350.27844,516.46181 C 352.15579,513.85469 355.25655,512.69589 358.10589,511.18039 C 356.10774,512.34923 354.10958,513.51807 352.11143,514.68691 C 352.21495,514.61859 352.32536,514.55972 352.42199,514.48196 C 352.73403,514.23086 353.03402,513.96823 353.37144,513.7464 C 353.48859,513.66938 353.6205,513.61758 353.74503,513.55317 C 354.433,513.01434 354.97743,512.33527 355.62275,511.753 C 356.0715,511.17548 356.60462,510.62199 356.74726,509.88395 C 356.94167,509.00284 356.75617,508.07493 356.67917,507.18568 C 356.53647,506.31917 356.30074,505.47057 356.27097,504.58861 C 356.11387,503.80926 355.82238,503.44891 354.97117,503.46559 C 353.85685,503.46067 352.73783,503.44171 351.6288,503.56794 C 351.28011,503.63386 351.0419,503.6584 350.71764,503.79046 C 350.59532,503.84027 350.25177,504.03919 350.36528,503.97166 C 362.34058,496.84675 357.57532,499.34853 355.78107,500.8397 C 355.66489,501.04893 355.50188,501.23354 355.41092,501.4549 C 355.21434,501.93329 355.36944,502.48106 355.37741,502.97683 L 348.69892,506.37968 z"
         id="path3571"
         style="opacity:0.8;fill:#0042ff;fill-opacity:1;stroke:none;stroke-width:4;stroke-linecap:butt;stroke-linejoin:round;stroke-miterlimit:4;stroke-dasharray:none;stroke-dashoffset:0;stroke-opacity:1" />
      <path
         d="M 356.3896,526.46734 C 356.49489,527.25646 356.94413,527.86981 357.4443,528.45853 C 357.89976,528.87881 358.33645,529.28484 358.87767,529.59059 L 352.67663,533.5786 C 352.12231,533.18858 351.6309,532.7352 351.14678,532.26102 C 350.56579,531.61658 350.08718,530.91966 349.82786,530.08118 L 356.3896,526.46734 z"
         id="path3579"
         style="opacity:0.8;fill:#0042ff;fill-opacity:1;stroke:none;stroke-width:4;stroke-linecap:butt;stroke-linejoin:round;stroke-miterlimit:4;stroke-dasharray:none;stroke-dashoffset:0;stroke-opacity:1" />
    </g>
    <rect
       style="opacity:0.8;fill:none;fill-opacity:1;stroke:#000000;stroke-width:3.93659115;stroke-linecap:butt;stroke-linejoin:round;stroke-miterlimit:4;stroke-dasharray:none;stroke-dashoffset:0;stroke-opacity:1"
       id="rect3585"
       width="147.80336"
       height="44.589081"
       x="39.213493"
       y="221.4507"
       ry="9.7760086"
       rx="11.15398"
       inkscape:export-filename="/home/matt/Proyectos/CarmenSD/ingame.png"
       inkscape:export-xdpi="90"
       inkscape:export-ydpi="90" />
    <flowRoot
       xml:space="preserve"
       id="flowRoot3587"
       style="font-size:40px;font-style:normal;font-weight:normal;fill:#000000;fill-opacity:1;stroke:none;stroke-width:1px;stroke-linecap:butt;stroke-linejoin:miter;stroke-opacity:1;font-family:Bitstream Vera Sans"
       transform="matrix(0.2988324,0,0,0.2988324,-85.542982,135.23035)"
       inkscape:export-filename="/home/matt/Proyectos/CarmenSD/ingame.png"
       inkscape:export-xdpi="90"
       inkscape:export-ydpi="90"><flowRegion
         id="flowRegion3589"><rect
           id="rect3591"
           width="340.35715"
           height="52.5"
           x="505.71429"
           y="295.93362" /></flowRegion><flowPara
         id="flowPara3593">Cuartel general</flowPara></flowRoot>    <flowRoot
       xml:space="preserve"
       id="flowRoot3595"
       style="font-size:40px;font-style:normal;font-weight:normal;fill:#000000;fill-opacity:1;stroke:none;stroke-width:1px;stroke-linecap:butt;stroke-linejoin:miter;stroke-opacity:1;font-family:Bitstream Vera Sans"
       transform="matrix(0.2988324,0,0,0.2988324,-37.416671,153.65704)"
       inkscape:export-filename="/home/matt/Proyectos/CarmenSD/ingame.png"
       inkscape:export-xdpi="90"
       inkscape:export-ydpi="90"><flowRegion
         id="flowRegion3597"><rect
           id="rect3599"
           width="340.35715"
           height="52.5"
           x="505.71429"
           y="295.93362" /></flowRegion><flowPara
         id="flowPara3601">9 : 00 a.m.</flowPara></flowRoot>    <rect
       style="opacity:0.8;fill:none;fill-opacity:1;stroke:#000000;stroke-width:3.38499999;stroke-linecap:butt;stroke-linejoin:round;stroke-miterlimit:4;stroke-dasharray:none;stroke-dashoffset:0;stroke-opacity:1"
       id="rect3605"
       width="466.61719"
       height="48.624294"
       x="191.35202"
       y="218.29361"
       ry="9.4908438"
       rx="11.248777"
       inkscape:export-filename="/home/matt/Proyectos/CarmenSD/ingame.png"
       inkscape:export-xdpi="90"
       inkscape:export-ydpi="90" />
    <flowRoot
       xml:space="preserve"
       id="flowRoot3607"
       style="font-size:40px;font-style:normal;font-weight:normal;fill:#000000;fill-opacity:1;stroke:none;stroke-width:1px;stroke-linecap:butt;stroke-linejoin:miter;stroke-opacity:1;font-family:Bitstream Vera Sans"
       transform="matrix(0.4659991,0,0,0.4524753,74.751823,60.833477)"
       inkscape:export-filename="/home/matt/Proyectos/CarmenSD/ingame.png"
       inkscape:export-xdpi="90"
       inkscape:export-ydpi="90"><flowRegion
         id="flowRegion3609"><rect
           id="rect3611"
           width="473.72028"
           height="101.76312"
           x="265.71429"
           y="346.64789" /></flowRegion><flowPara
         id="flowPara3613">mision :</flowPara><flowPara
         id="flowPara3615">Objeto robado, etc, etc.</flowPara></flowRoot>    <flowRoot
       xml:space="preserve"
       id="flowRoot3617"
       style="font-size:40px;font-style:normal;font-weight:normal;fill:#000000;fill-opacity:1;stroke:none;stroke-width:1px;stroke-linecap:butt;stroke-linejoin:miter;stroke-opacity:1;font-family:Bitstream Vera Sans"
       transform="matrix(0.4659991,0,0,0.4524753,304.92812,60.159258)"
       inkscape:export-filename="/home/matt/Proyectos/CarmenSD/ingame.png"
       inkscape:export-xdpi="90"
       inkscape:export-ydpi="90"><flowRegion
         id="flowRegion3619"><rect
           id="rect3621"
           width="456.37854"
           height="104.47159"
           x="265.71429"
           y="346.64789" /></flowRegion><flowPara
         id="flowPara3625">Sospechoso : Persona de sexo masculuino</flowPara></flowRoot>    <flowRoot
       xml:space="preserve"
       id="flowRoot3627"
       style="font-size:40px;font-style:normal;font-weight:normal;fill:#000000;fill-opacity:1;stroke:none;stroke-width:1px;stroke-linecap:butt;stroke-linejoin:miter;stroke-opacity:1;font-family:Bitstream Vera Sans"
       transform="translate(-55.050763,-46.766491)"
       inkscape:export-filename="/home/matt/Proyectos/CarmenSD/ingame.png"
       inkscape:export-xdpi="90"
       inkscape:export-ydpi="90"><flowRegion
         id="flowRegion3629"><rect
           id="rect3631"
           width="500.15378"
           height="207.14285"
           x="160"
           y="342.36218" /></flowRegion><flowPara
         id="flowPara3633">Mapa/Imagen de la ciudad/descripcion del pais/pistas/descripicin de la misin/etc.</flowPara></flowRoot>    <flowRoot
       xml:space="preserve"
       id="flowRoot2527"
       style="font-size:40px;font-style:normal;font-weight:normal;fill:#000000;fill-opacity:1;stroke:none;stroke-width:1px;stroke-linecap:butt;stroke-linejoin:miter;stroke-opacity:1;font-family:Bitstream Vera Sans"
       transform="matrix(0.2988324,0,0,0.2988324,-97.430437,153.29193)"
       inkscape:export-filename="/home/matt/Proyectos/CarmenSD/ingame.png"
       inkscape:export-xdpi="90"
       inkscape:export-ydpi="90"><flowRegion
         id="flowRegion2529"><rect
           id="rect2531"
           width="340.35715"
           height="52.5"
           x="505.71429"
           y="295.93362" /></flowRegion><flowPara
         id="flowPara2533">Lunes</flowPara></flowRoot>    <path
       style="fill:none;fill-rule:evenodd;stroke:#000000;stroke-width:3.50000000000000000;stroke-linecap:round;stroke-linejoin:round;stroke-opacity:1;stroke-miterlimit:4;stroke-dasharray:none"
       d="M 41.416255,274.54473 L 40.406102,646.28086 L 181.82746,644.26056 L 182.83761,562.4382 L 653.56869,562.4382 L 653.56869,275.55488 L 41.416255,274.54473 z"
       id="path3307"
       sodipodi:nodetypes="ccccccc" />
    <path
       style="fill:none;fill-rule:evenodd;stroke:#000000;stroke-width:3.5;stroke-linecap:butt;stroke-linejoin:miter;stroke-miterlimit:4;stroke-dasharray:none;stroke-opacity:1"
       d="M 191.92898,562.4382 L 191.4239,641.2301 L 313.9049,641.48263 L 313.14729,562.4382 L 191.92898,562.4382 z"
       id="path3310"
       sodipodi:nodetypes="ccccc" />
    <path
       style="fill:none;fill-rule:evenodd;stroke:#000000;stroke-width:3.5;stroke-linecap:butt;stroke-linejoin:miter;stroke-miterlimit:4;stroke-dasharray:none;stroke-opacity:1"
       d="M 320.21836,562.4382 L 320.97597,641.73518 L 447.24504,641.73517 L 447.49758,562.4382 L 320.21836,562.4382 z"
       id="path3312"
       sodipodi:nodetypes="ccccc" />
    <path
       style="fill:none;fill-rule:evenodd;stroke:#000000;stroke-width:3.5;stroke-linecap:butt;stroke-linejoin:miter;stroke-opacity:1;stroke-miterlimit:4;stroke-dasharray:none"
       d="M 455.32626,562.4382 L 455.32626,641.98772 L 560.63466,642.24025 L 559.87705,562.4382 L 455.32626,562.4382 z"
       id="path3314"
       sodipodi:nodetypes="ccccc" />
    <path
       style="fill:none;fill-rule:evenodd;stroke:#000000;stroke-width:3.5;stroke-linecap:butt;stroke-linejoin:miter;stroke-miterlimit:4;stroke-dasharray:none;stroke-opacity:1"
       d="M 566.69556,562.94328 L 567.45318,641.98771 L 653.56868,642.24026 L 653.56869,562.43821 L 566.69556,562.94328 z"
       id="path3316"
       sodipodi:nodetypes="ccccc" />
    <g
       id="g3328"
       transform="translate(-200.0102,145.46197)">
      <path
         d="M 844.48754,454.85696 A 35.355339,31.819805 0 1 1 773.77686,454.85696 A 35.355339,31.819805 0 1 1 844.48754,454.85696 z"
         sodipodi:ry="31.819805"
         sodipodi:rx="35.355339"
         sodipodi:cy="454.85696"
         sodipodi:cx="809.1322"
         id="path3318"
         style="fill:#141ee0;fill-opacity:1;fill-rule:evenodd;stroke:#000000;stroke-width:1px;stroke-linecap:butt;stroke-linejoin:miter;stroke-opacity:1"
         sodipodi:type="arc" />
      <path
         id="path3320"
         d="M 780.35714,438.79076 L 784.82142,442.00504 L 787.85714,446.29076 L 791.07142,451.29076 L 791.42857,454.32647 L 790.71428,457.18361 C 790.71428,457.18361 787.14285,458.61219 787.14285,459.32647 C 787.14285,460.04076 786.78571,464.1479 786.78571,464.1479 L 788.57142,469.1479 L 791.60714,473.61219 L 795.71428,478.61219 L 796.96428,482.36219 L 798.57142,484.50504 L 800.89285,484.32647 L 799.64285,479.86219 L 800.17857,474.1479 L 802.85714,470.93361 L 805.35714,464.68361 L 803.03571,459.1479 L 799.28571,456.6479 L 795.17857,453.96933 L 792.32142,450.3979 L 792.67857,446.46933 L 793.92857,442.8979 L 799.28571,441.29076 L 803.39285,439.32647 L 805.89285,431.6479 L 807.5,429.1479 L 805.89285,427.36219 L 800.35714,427.8979 L 793.92857,430.75504 L 790.71428,430.57647 L 786.25,433.79076 L 783.21428,434.32647 L 780.35714,438.79076 z"
         style="fill:#000000;fill-opacity:1;fill-rule:evenodd;stroke:#000000;stroke-width:1px;stroke-linecap:butt;stroke-linejoin:miter;stroke-opacity:1" />
      <path
         id="path3322"
         d="M 816.96428,451.82647 L 816.96428,458.25504 L 820.71428,460.93361 L 824.46428,461.6479 L 825.53571,462.36219 L 825.89285,467.00504 L 827.5,472.36219 L 832.5,467.54076 L 833.39285,462.71933 C 833.39285,462.71933 831.78571,455.75504 831.07142,455.3979 C 830.35714,455.04076 825,448.25504 825,448.25504 L 816.96428,451.82647 z"
         style="fill:#000000;fill-opacity:1;fill-rule:evenodd;stroke:#000000;stroke-width:1px;stroke-linecap:butt;stroke-linejoin:miter;stroke-opacity:1" />
      <path
         id="path3324"
         d="M 812.32142,431.6479 C 812.32142,431.6479 809.64285,437.18361 809.64285,437.8979 C 809.64285,438.61219 810.53571,441.82647 810.53571,441.82647 L 811.25,448.07647 L 810.17857,450.57647 C 810.17857,450.57647 810.89285,452.00504 811.60714,452.18361 C 812.32142,452.36219 815.89285,450.04076 815.89285,450.04076 L 816.42857,447.18361 L 815.35714,444.68361 L 817.67857,442.00504 L 818.75,443.79076 L 818.92857,446.46933 L 820.89285,444.50504 L 819.64285,443.07647 L 818.92857,440.93361 L 821.07142,439.50504 L 823.03571,442.18361 L 823.75,445.75504 L 827.85714,446.11219 L 835,443.07647 L 837.32142,446.82647 L 838.39285,442.18361 L 839.64285,441.11219 L 836.42857,436.82647 L 829.64285,431.29076 L 825.53571,428.43361 L 817.67857,429.1479 L 817.85714,434.1479 L 815.53571,436.6479 L 812.14285,436.6479 L 812.32142,431.6479 z"
         style="fill:#000000;fill-opacity:1;fill-rule:evenodd;stroke:#000000;stroke-width:1px;stroke-linecap:butt;stroke-linejoin:miter;stroke-opacity:1" />
      <path
         id="path3326"
         d="M 837.5,462.36219 L 833.57142,468.79076 L 833.39285,472.18361 L 837.32142,471.82647 L 841.78571,465.3979 L 842.85714,460.04076 L 837.5,462.36219 z"
         style="fill:#000000;fill-opacity:1;fill-rule:evenodd;stroke:#000000;stroke-width:1px;stroke-linecap:butt;stroke-linejoin:miter;stroke-opacity:1" />
    </g>
  </g>
</svg>
